<?xml version="1.0" encoding="UTF-8"?>
<svg width="158px" height="33px" viewBox="0 0 158 33" version="1.1" xmlns="http://www.w3.org/2000/svg" xmlns:xlink="http://www.w3.org/1999/xlink">
    <!-- Generator: Sketch 51.1 (57501) - http://www.bohemiancoding.com/sketch -->
    <title>Logo</title>
    <desc>Created with Sketch.</desc>
    <defs></defs>
    <g id="Page-1" stroke="none" stroke-width="1" fill="none" fill-rule="evenodd">
        <g id="Desktop-HD" transform="translate(-195.000000, -267.000000)" fill-rule="nonzero">
            <g id="Logo" transform="translate(195.000000, 267.000000)">
                <g id="Pen" fill="#2374FF">
                    <path d="M16.2498813,13.6304348 C14.8290923,13.6304348 13.6773823,14.7781915 13.6773823,16.1941037 C13.6773823,17.4280069 14.5525389,18.457879 15.7178979,18.7020688 L16.0379532,32.1665077 C16.0406887,32.2815903 16.1347662,32.3734581 16.2498813,32.3734581 L16.2498813,32.3734581 C16.3649963,32.3734581 16.4590738,32.2815903 16.4618094,32.1665077 L16.7818647,18.7020688 C17.9472236,18.457879 18.8223802,17.4280069 18.8223802,16.1941037 C18.8223802,14.7781915 17.6706703,13.6304348 16.2498813,13.6304348 Z" id="Shape"></path>
                    <path d="M32.4974604,16.1929565 C32.4974604,7.24991049 25.2225789,0 16.2487302,0 C7.27488148,0 0,7.24991049 0,16.1929565 C0,24.5983964 6.42702274,31.5066355 14.6505051,32.3072153 C14.6102082,25.7228353 10.6292693,20.6395424 8.97774841,18.8120053 C8.97774841,18.8113576 8.29952641,18.0007382 8.68364639,17.0291608 L11.6916113,10.3978212 C11.6916113,10.3978212 12.2482928,8.99227262 13.4844962,8.99227262 L16.2487302,8.99227262 L19.0129642,8.99227262 C20.2494925,8.99227262 20.8058491,10.3978212 20.8058491,10.3978212 L23.813814,17.0291608 C24.198259,18.0007382 23.519712,18.8113576 23.519712,18.8113576 C21.868191,20.6398662 17.8872521,25.7228353 17.8469553,32.3043005 C26.0707626,31.5066355 32.4974604,24.5983964 32.4974604,16.1929565 Z" id="Shape"></path>
                </g>
                <g id="Text" transform="translate(44.000000, 8.000000)" fill="#383838">
                    <g id="Group" transform="translate(64.187578, 0.000000)">
                        <path d="M2.65852255,10.7429434 L6.90225907,0.524003662 C7.03400416,0.206760793 7.34374895,3.96168854e-16 7.68725995,3.33066907e-16 L9.97255567,-3.33066907e-16 C10.3146035,-3.95900072e-16 10.6233283,0.205025841 10.7560054,0.520293207 L16.9866954,15.3256668 C17.1687875,15.7583542 16.9656399,16.2567313 16.5329525,16.4388233 C16.4285804,16.4827473 16.3164838,16.5053736 16.2032457,16.5053736 L1.62884209,16.5053736 C1.15940005,16.5053736 0.778842086,16.1248157 0.778842086,15.6553736 C0.778842086,15.5404125 0.802162112,15.4266461 0.84739151,15.3209562 L1.53256248,13.7198815 C1.66640322,13.4071289 1.97382552,13.2042989 2.31401306,13.2042989 L12.4057507,13.2042989 L8.91184485,4.55761285 L6.17060783,11.3856208 C6.0412617,11.7078025 5.72897944,11.9189397 5.38180299,11.9189397 L3.44352343,11.9189397 C2.97408139,11.9189397 2.59352343,11.5383817 2.59352343,11.0689397 C2.59352343,10.9570554 2.61561212,10.8462719 2.65852255,10.7429434 Z" id="Path-2-Copy"></path>
                        <path d="M35.1639771,10.7429434 L39.4077136,0.524003662 C39.5394587,0.206760793 39.8492035,-4.64041715e-16 40.1927145,-2.22044605e-16 L42.4780102,-3.33066907e-16 C42.820058,-1.00349906e-15 43.1287829,0.205025841 43.2614599,0.520293207 L49.49215,15.3256668 C49.674242,15.7583542 49.4710944,16.2567313 49.0384071,16.4388233 C48.934035,16.4827473 48.8219384,16.5053736 48.7087003,16.5053736 L34.1342966,16.5053736 C33.6648546,16.5053736 33.2842966,16.1248157 33.2842966,15.6553736 C33.2842966,15.5404125 33.3076167,15.4266461 33.3528461,15.3209562 L34.038017,13.7198815 C34.1718578,13.4071289 34.4792801,13.2042989 34.8194676,13.2042989 L44.9112053,13.2042989 L41.4172994,4.55761285 L38.6760624,11.3856208 C38.5467163,11.7078025 38.234434,11.9189397 37.8872575,11.9189397 L35.948978,11.9189397 C35.479536,11.9189397 35.098978,11.5383817 35.098978,11.0689397 C35.098978,10.9570554 35.1210667,10.8462719 35.1639771,10.7429434 Z" id="Path-2-Copy-2"></path>
                        <path d="M26.8230264,7.47082772 C26.8265425,7.47084524 26.8300607,7.47085401 26.833581,7.47085401 C27.9819136,7.47085401 28.9128212,6.53741728 28.9128212,5.38596471 C28.9128212,4.23451215 27.9819136,3.30107541 26.833581,3.30107541 C26.8300607,3.30107541 26.8265425,3.30108418 26.8230264,3.30110171 L19.1067153,3.30107541 C18.6372733,3.30107541 18.2567153,2.92051745 18.2567153,2.45107541 L18.2567153,0.85 C18.2567153,0.380557963 18.6372733,-8.32800948e-11 19.1067153,-7.95760124e-11 L25.8977422,-9.13313815e-12 C25.4069948,-9.12099272e-12 25.802962,-9.11739208e-12 27.0856438,-9.12233626e-12 C29.0096665,-9.1292642e-12 31.7519966,2.04819702 31.7519966,5.38596471 C31.7519966,7.61114317 30.7858014,9.22581051 28.853411,10.2299667 L31.9663927,15.2044009 C32.0509901,15.3395846 32.095852,15.4958404 32.095852,15.6553125 C32.095852,16.1247545 31.7152941,16.5053125 31.245852,16.5053125 L29.1804215,16.5053125 C28.9767792,16.5053125 28.7872819,16.4011653 28.6781234,16.2292507 L25.2098327,10.767014 L21.5488456,10.767014 L21.5488456,15.6553125 C21.5488456,16.1247545 21.1682876,16.5053125 20.6988456,16.5053125 L19.1067153,16.5053125 C18.6372733,16.5053125 18.2567153,16.1247545 18.2567153,15.6553125 L18.2567153,8.32085401 C18.2567153,7.85141198 18.6372733,7.47085401 19.1067153,7.47085401 L26.8230264,7.47085401 Z" id="Combined-Shape"></path>
                    </g>
                    <g id="Group-2">
                        <path d="M46.7665536,-1.42108547e-14 L59.1014247,-1.39888101e-14 C59.5708668,-1.40750452e-14 59.9514247,0.380557963 59.9514247,0.85 L59.9514247,2.45107473 C59.9514247,2.92051676 59.5708668,3.30107473 59.1014247,3.30107473 L54.5800543,3.30107473 L54.5800543,15.6553736 C54.5800543,16.1248157 54.1994963,16.5053736 53.7300543,16.5053736 L52.137924,16.5053736 C51.668482,16.5053736 51.287924,16.1248157 51.287924,15.6553736 L51.287924,3.30107473 L46.7665536,3.30107473 C46.2971116,3.30107473 45.9165536,2.92051676 45.9165536,2.45107473 L45.9165536,0.85 C45.9165536,0.380557963 46.2971116,-1.42356419e-14 46.7665536,-1.4321877e-14 Z" id="Path-4"></path>
                        <path d="M42.2615333,1.42108547e-14 L43.8536635,1.4321877e-14 C44.3231056,1.42356419e-14 44.7036635,0.380557963 44.7036635,0.85 L44.7036635,15.6553736 C44.7036635,16.1248157 44.3231056,16.5053736 43.8536635,16.5053736 L41.7138818,16.5053736 C41.523878,16.5053736 41.3453,16.4146294 41.2332827,16.2611578 L33.4411126,5.58533251 L33.4411126,15.6553736 C33.4411126,16.1248157 33.0605547,16.5053736 32.5911126,16.5053736 L30.9989824,16.5053736 C30.5295403,16.5053736 30.1489824,16.1248157 30.1489824,15.6553736 L30.1489824,0.85 C30.1489824,0.380557963 30.5295403,1.49632236e-14 30.9989824,1.48769885e-14 L33.1394564,1.39888101e-14 C33.3290722,1.39539783e-14 33.5073338,0.0903760054 33.6194056,0.243327162 L41.4115333,10.8777148 L41.4115333,0.85 C41.4115333,0.380557963 41.7920912,1.38530006e-14 42.2615333,1.37667655e-14 Z" id="Path-5"></path>
                        <path d="M20.7057666,13.2042989 C23.1528257,13.2042989 25.210787,11.0261045 25.210787,8.25268682 C25.210787,5.47926917 23.1528257,3.30107473 20.7057666,3.30107473 C18.2587076,3.30107473 16.2007463,5.47926917 16.2007463,8.25268682 C16.2007463,11.0261045 18.2587076,13.2042989 20.7057666,13.2042989 Z M20.7057666,16.5053736 C16.3995193,16.5053736 12.908616,12.8105199 12.908616,8.25268682 C12.908616,3.69485374 16.3995193,0 20.7057666,0 C25.012014,0 28.5029172,3.69485374 28.5029172,8.25268682 C28.5029172,12.8105199 25.012014,16.5053736 20.7057666,16.5053736 Z" id="Oval-2"></path>
                        <path d="M0.85,-1.42108547e-14 L11.278901,-1.44328993e-14 C11.748343,-1.36852378e-14 12.128901,0.380557963 12.128901,0.85 L12.128901,2.45107473 C12.128901,2.92051676 11.748343,3.30107473 11.278901,3.30107473 L0.85,3.30107473 C0.380557963,3.30107473 2.81461326e-14,2.92051676 2.80886425e-14,2.45107473 L2.81996648e-14,0.85 C2.79337006e-14,0.380557963 0.380557963,-1.43466642e-14 0.85,-1.44328993e-14 Z M10.3962008,6.93092713 L10.3962008,8.53200186 C10.3962008,9.00144389 10.0156429,9.38200186 9.54620082,9.38200186 L3.29213026,9.38200186 L3.29213026,15.6553736 C3.29213026,16.1248157 2.9115723,16.5053736 2.44213026,16.5053736 L0.85,16.5053736 C0.380557963,16.5053736 5.67898866e-14,16.1248157 5.67323966e-14,15.6553736 L5.67323966e-14,6.93092713 C5.66749065e-14,6.46148509 0.380557963,6.08092713 0.85,6.08092713 L9.54620082,6.08092713 C10.0156429,6.08092713 10.3962008,6.46148509 10.3962008,6.93092713 Z" id="Combined-Shape"></path>
                    </g>
                </g>
            </g>
        </g>
    </g>
</svg>