<?xml version="1.0" encoding="UTF-8"?>
<svg width="118px" height="35px" viewBox="0 0 118 35" version="1.1" xmlns="http://www.w3.org/2000/svg" xmlns:xlink="http://www.w3.org/1999/xlink">
    <!-- Generator: Sketch 50.2 (55047) - http://www.bohemiancoding.com/sketch -->
    <title>slack-logo</title>
    <desc>Created with Sketch.</desc>
    <defs></defs>
    <g id="Page-1" stroke="none" stroke-width="1" fill="none" fill-rule="evenodd">
        <g id="home_1" transform="translate(-602.000000, -1748.000000)" fill-rule="nonzero">
            <g id="testimonial" transform="translate(251.000000, 1748.000000)">
                <g id="Group-17" transform="translate(351.000000, 0.000000)">
                    <g id="slack-logo">
                        <g id="Group" transform="translate(39.864865, 0.000000)" fill="#FFFFFF">
                            <path d="M13.6869369,9.70703125 C14.7234234,10.171875 14.8031532,10.5273437 13.9792793,12.1132812 C13.1554054,13.7539062 12.9427928,13.8359375 11.9328829,13.4257812 C10.6572072,12.8515625 9.00945946,12.4414062 7.9463964,12.4414062 C6.21891892,12.4414062 5.04954955,13.0703125 5.04954955,14.0546875 C5.04954955,17.2539062 14.9891892,15.53125 14.9891892,22.3671875 C14.9891892,25.8125 12.1189189,28.109375 7.81351351,28.109375 C5.5545045,28.109375 2.76396396,27.34375 0.823873874,26.3320313 C-0.132882883,25.8398438 -0.186036036,25.5390625 0.637837838,23.8984375 C1.35540541,22.4492188 1.59459459,22.3125 2.63108108,22.75 C4.27882883,23.4882813 6.3518018,24.0625 7.76036036,24.0625 C9.35495495,24.0625 10.3914414,23.40625 10.3914414,22.421875 C10.3914414,19.3046875 0.265765766,20.78125 0.265765766,14.1640625 C0.265765766,10.6367188 3.10945946,8.28515625 7.38828829,8.28515625 C9.40810811,8.2578125 11.9328829,8.88671875 13.6869369,9.70703125 Z" id="Shape"></path>
                            <path d="M21.7130631,1.5859375 L21.7130631,27.0703125 C21.7130631,27.453125 21.3144144,27.8632813 20.7563063,27.8632813 L18.1518018,27.8632813 C17.5936937,27.8632813 17.195045,27.453125 17.195045,27.0703125 L17.195045,1.5859375 C17.195045,0.328125 17.5405405,0.21875 19.4540541,0.21875 C21.6333333,0.19140625 21.7130631,0.35546875 21.7130631,1.5859375 Z" id="Shape"></path>
                            <path d="M40.2369369,15.9140625 L40.2369369,26.8789063 C40.2369369,27.453125 39.8382883,27.8632812 39.2801802,27.8632812 L36.7022523,27.8632812 C36.1175676,27.8632812 35.6923423,27.4257813 35.7454955,26.8242187 L35.7720721,25.6484375 C34.3635135,27.234375 32.3702703,28.0820312 30.377027,28.0820312 C26.4968468,28.0820312 23.8923423,25.7578125 23.8923423,22.3125 C23.8923423,18.6484375 26.8423423,16.1601562 31.2540541,16.1601562 C32.9283784,16.1601562 34.4698198,16.4609375 35.7189189,17.0078125 L35.7189189,15.75 C35.7189189,13.7265625 34.1774775,12.5234375 31.5463964,12.5234375 C30.3238739,12.5234375 28.809009,13.015625 27.6130631,13.7539062 C26.6828829,14.3007812 26.4702703,14.2460937 25.4603604,12.7148437 C24.477027,11.1835937 24.5036036,10.8828125 25.4603604,10.2539062 C27.2675676,9.05078125 29.7391892,8.28515625 31.9981982,8.28515625 C37.0477477,8.2578125 40.2369369,11.1015625 40.2369369,15.9140625 Z M28.2243243,22.2578125 C28.2243243,23.5703125 29.2873874,24.4453125 30.9351351,24.4453125 C32.9018018,24.4453125 34.6824324,23.4609375 35.7189189,21.8203125 L35.7189189,20.0976563 C34.6824324,19.6875 33.4067568,19.46875 32.2905405,19.46875 C29.8454955,19.46875 28.2243243,20.6445313 28.2243243,22.2578125 Z" id="Shape"></path>
                            <path d="M57.9103604,9.734375 C58.8671171,10.3085938 58.8936937,10.609375 57.8572072,12.25 C56.8738739,13.8085938 56.7144144,13.890625 55.6779279,13.34375 C54.8806306,12.90625 53.6315315,12.5507812 52.5684685,12.5507812 C49.2995495,12.5507812 47.1202703,14.765625 47.1202703,18.1015625 C47.1202703,21.5742188 49.2995495,23.8984375 52.5684685,23.8984375 C53.7112613,23.8984375 55.1198198,23.4609375 56.05,22.9140625 C57.0067568,22.3398438 57.1927928,22.3945312 58.2027027,23.8984375 C59.1063063,25.2929688 59.0797297,25.6210938 58.2824324,26.2226562 C56.8207207,27.2617188 54.5351351,28.0546875 52.5153153,28.0546875 C46.4824324,28.0546875 42.4427928,24.0625 42.4427928,18.1015625 C42.4427928,12.1679687 46.4824324,8.23046875 52.5684685,8.23046875 C54.3756757,8.2578125 56.554955,8.9140625 57.9103604,9.734375 Z" id="Shape"></path>
                            <path d="M77.6301802,25.4570313 C78.3743243,26.4414063 78.081982,26.796875 76.195045,27.5078125 C74.2815315,28.21875 74.0157658,28.1914063 73.3247748,27.2617188 L67.9297297,19.8515625 L65.5112613,22.2578125 L65.5112613,27.0703125 C65.5112613,27.453125 65.1126126,27.8632813 64.5545045,27.8632813 L61.9234234,27.8632813 C61.3653153,27.8632813 60.9666667,27.453125 60.9666667,27.0703125 L60.9666667,1.5859375 C60.9666667,0.328125 61.3121622,0.21875 63.2256757,0.21875 C65.404955,0.21875 65.4846847,0.3828125 65.4846847,1.5859375 L65.4846847,16.078125 L72.872973,8.77734375 C73.6968468,7.984375 74.1486486,8.0390625 75.5837838,9.0234375 C77.1783784,10.0898438 77.3112613,10.390625 76.5405405,11.15625 L71.0391892,16.6796875 L77.6301802,25.4570313 Z" id="Shape"></path>
                        </g>
                        <g id="Group" transform="translate(0.000000, 0.546875)">
                            <rect id="Rectangle-path" fill="#2D333A" transform="translate(16.662509, 17.172925) rotate(-18.518296) translate(-16.662509, -17.172925) " x="14.3238251" y="14.8487609" width="4.67736756" height="4.64832826"></rect>
                            <g fill="#FFFFFF">
                                <rect id="Rectangle-path" transform="translate(16.662509, 17.172925) rotate(-18.518296) translate(-16.662509, -17.172925) " x="14.3238251" y="14.8487609" width="4.67736756" height="4.64832826"></rect>
                                <path d="M31.8918919,12.4414063 C28.4635135,0.68359375 23.5202703,-2.05078125 12.0923423,1.4765625 C0.664414414,5.00390625 -1.99324324,10.0898438 1.43513514,21.8476563 C4.86351351,33.6054688 9.80675676,36.3398438 21.2346847,32.8125 C32.6626126,29.2851563 35.3202703,24.1992188 31.8918919,12.4414063 Z M26.1247748,20.0703125 L23.9720721,20.8085938 L24.7162162,23.1054688 C25.0085586,24.0351563 24.5301802,25.046875 23.6265766,25.3476563 C23.4405405,25.4023438 23.2279279,25.4570313 23.0418919,25.4296875 C22.3509009,25.4023438 21.6864865,24.9375 21.4472973,24.2265625 L20.7031532,21.9296875 L16.2648649,23.4609375 L17.009009,25.7578125 C17.3013514,26.6875 16.822973,27.6992188 15.9193694,28 C15.7333333,28.0546875 15.5207207,28.109375 15.3346847,28.0820313 C14.6436937,28.0546875 13.9792793,27.5898438 13.7400901,26.8789063 L12.9959459,24.5820312 L10.8432432,25.3203125 C10.6572072,25.375 10.4445946,25.4296875 10.2585586,25.4023438 C9.56756757,25.375 8.90315315,24.9101562 8.66396396,24.1992188 C8.37162162,23.2695312 8.85,22.2578125 9.7536036,21.9570313 L11.9063063,21.21875 L10.4711712,16.8164063 L8.31846847,17.5546875 C8.13243243,17.609375 7.91981982,17.6640625 7.73378378,17.6367188 C7.04279279,17.609375 6.37837838,17.1445313 6.13918919,16.4335938 C5.84684685,15.5039063 6.32522523,14.4921875 7.22882883,14.1914063 L9.38153153,13.453125 L8.63738739,11.15625 C8.34504505,10.2265625 8.82342342,9.21484375 9.72702703,8.9140625 C10.6306306,8.61328125 11.613964,9.10546875 11.9063063,10.0351562 L12.6504505,12.3320312 L17.0887387,10.8007812 L16.3445946,8.50390625 C16.0522523,7.57421875 16.5306306,6.5625 17.4342342,6.26171875 C18.3378378,5.9609375 19.3211712,6.453125 19.6135135,7.3828125 L20.3576577,9.6796875 L22.5103604,8.94140625 C23.413964,8.640625 24.3972973,9.1328125 24.6896396,10.0625 C24.981982,10.9921875 24.5036036,12.0039062 23.6,12.3046875 L21.4472973,13.0429687 L22.8824324,17.4453125 L25.0351351,16.7070313 C25.9387387,16.40625 26.9220721,16.8984375 27.2144144,17.828125 C27.5067568,18.7578125 27.0283784,19.7695313 26.1247748,20.0703125 Z" id="Shape"></path>
                            </g>
                        </g>
                    </g>
                </g>
            </g>
        </g>
    </g>
</svg>