<?xml version="1.0" encoding="UTF-8"?>
<svg width="232px" height="74px" viewBox="0 0 232 74" version="1.1" xmlns="http://www.w3.org/2000/svg" xmlns:xlink="http://www.w3.org/1999/xlink">
    <!-- Generator: Sketch 50.2 (55047) - http://www.bohemiancoding.com/sketch -->
    <title>logo-5</title>
    <desc>Created with Sketch.</desc>
    <defs></defs>
    <g id="Page-1" stroke="none" stroke-width="1" fill="none" fill-rule="evenodd">
        <g id="logo-5" fill="#FFFFFF" fill-rule="nonzero">
            <path d="M231.142,53.815 C230.94,53.815 230.74,53.612 230.332,53.612 C230.332,53.612 229.928,53.612 229.726,54.219 C229.726,54.422 229.122,55.434 228.311,57.053 C228.311,57.053 228.311,57.256 228.106,57.256 C226.286,60.494 222.844,65.352 218.39,65.149 L218.188,65.149 C217.379,64.948 216.773,64.34 216.773,63.329 C216.976,62.112 217.176,60.698 217.785,59.483 C221.023,54.016 224.466,48.553 227.703,43.087 C228.714,41.265 229.525,39.444 230.333,37.42 C230.74,36.206 229.929,34.791 228.514,34.183 C225.88,33.37 223.653,33.775 222.239,35.597 C220.417,38.028 218.798,41.671 217.177,44.302 C215.56,46.935 214.343,49.564 212.524,51.993 C210.093,55.231 207.463,58.47 204.628,61.505 C203.21,62.925 201.391,64.138 199.567,65.15 C197.948,65.959 196.127,64.341 195.722,61.912 C195.317,59.279 195.519,56.851 196.328,54.424 C196.731,53.412 197.137,52.399 198.15,51.59 C198.758,51.186 199.972,50.373 200.579,49.971 C207.462,44.506 212.926,38.03 217.58,30.742 C221.426,24.875 224.668,19.001 226.691,12.12 C227.296,9.691 227.904,7.261 227.296,4.63 C226.691,1.393 225.069,-0.229 221.425,0.177 C218.795,0.382 216.772,1.797 214.749,3.414 C210.901,6.656 207.662,10.501 205.029,14.548 C201.792,19.405 198.958,24.465 196.125,29.528 C193.291,34.792 190.864,40.256 188.84,46.125 C188.637,46.732 188.432,47.541 188.232,48.146 C188.232,48.351 188.03,48.554 188.03,48.753 C187.624,49.564 186.207,52.196 184.588,54.423 C184.185,55.03 183.779,55.64 183.373,56.245 C182.769,57.054 182.161,57.862 181.351,58.673 C180.135,60.091 178.923,61.304 177.3,62.316 C175.884,63.33 174.47,63.937 172.849,64.138 L172.038,64.138 C171.43,64.138 171.027,64.138 170.42,63.937 C169.812,63.937 169.204,63.734 168.598,63.531 C166.776,63.127 164.955,62.519 162.931,62.113 C161.31,61.711 160.299,61.711 158.883,61.711 L157.264,61.711 C155.846,61.711 154.43,62.113 152.811,62.922 C170.824,41.875 179.933,41.875 180.945,40.861 C182.768,40.455 183.576,40.256 184.184,39.646 C184.993,39.041 185.398,38.029 185.598,37.218 C185.803,34.787 184.587,33.371 183.171,33.17 L182.564,33.17 L182.361,33.17 C180.945,33.17 179.326,33.776 178.718,33.981 C175.073,34.384 172.038,34.384 169.812,34.384 C165.358,34.384 163.131,33.981 160.705,33.981 C159.287,33.981 158.073,33.981 156.452,34.384 C156.252,34.384 156.049,34.587 155.644,34.587 C155.644,34.587 149.772,35.195 147.143,42.279 L146.94,42.48 C146.94,42.683 144.107,48.351 143.095,49.97 C140.868,53.816 138.644,56.851 136.821,58.876 C134.191,61.71 130.949,64.341 127.914,64.341 C127.511,64.341 127.104,64.341 126.701,64.138 C126.498,64.138 126.093,63.937 125.89,63.937 C124.877,63.531 125.079,61.505 125.284,60.9 C125.485,60.091 125.687,59.279 126.093,58.468 C128.725,53.613 131.557,48.958 134.191,44.099 C135.605,41.671 137.021,39.242 138.236,36.61 C138.644,35.597 138.236,34.181 137.226,33.776 C134.999,32.56 131.154,32.56 129.533,34.587 C128.32,36.208 127.307,37.824 126.296,39.647 C122.451,45.92 118.806,52.198 114.151,58.067 C112.329,60.294 110.509,62.317 107.877,63.331 C106.661,63.735 105.449,63.938 104.233,63.128 C103.019,62.317 102.815,61.306 103.019,60.093 C103.222,58.878 103.626,57.661 104.03,56.45 C105.852,51.591 108.887,47.341 111.722,43.089 C112.734,41.47 113.949,39.851 114.96,38.232 C116.175,36.209 115.567,33.983 113.544,33.172 C113.14,32.969 112.733,32.969 112.329,32.969 C109.901,32.361 107.675,32.766 106.46,34.993 C104.637,37.825 102.815,40.659 100.995,43.694 C99.376,46.126 98.162,48.96 96.542,51.186 C94.113,54.424 91.481,57.661 88.647,60.698 C86.825,62.923 84.6,64.747 81.967,65.96 C80.753,66.569 79.54,67.177 78.324,66.165 C77.109,65.354 77.109,63.938 77.313,62.724 C77.92,60.093 78.121,57.46 79.133,55.033 C81.563,48.961 84.397,43.09 87.028,37.015 C88.647,33.172 90.47,29.325 91.885,25.279 C92.896,22.445 92.292,19.407 90.265,16.981 C88.038,14.753 85.205,14.349 81.766,15.159 C77.109,16.373 72.859,18.801 69.215,21.837 C68.608,22.445 67.799,22.849 67.192,23.455 C67.192,22.849 67.395,22.445 67.395,22.039 C68.407,18.8 69.622,15.764 68.204,12.122 C67.597,10.501 66.788,9.085 65.169,8.074 C61.727,6.252 58.489,6.655 55.452,7.466 C50.391,8.883 46.345,11.92 42.7,15.36 C41.688,16.373 40.473,17.384 39.461,18.599 C39.867,16.373 40.473,14.349 40.473,12.122 C40.473,6.655 37.234,3.215 31.77,1.394 C27.52,0.178 23.27,0.383 19.018,1.189 C14.768,2 10.719,3.415 7.077,5.847 C4.647,7.465 2.42,9.289 1.208,12.321 C0.6,13.943 0.6,15.763 1.208,17.585 C2.016,19.811 4.446,21.025 6.874,19.205 C9.708,17.382 12.138,15.157 14.972,13.132 C19.222,9.895 23.472,7.062 29.14,6.654 C30.963,6.451 32.581,7.262 33.189,9.084 C33.389,9.895 33.593,11.107 33.189,11.918 C32.581,13.942 31.973,15.968 30.962,17.788 C28.328,22.444 25.497,26.897 22.46,31.551 C18.613,37.422 14.364,43.292 10.519,49.161 C7.685,53.413 5.054,57.864 2.624,62.114 C1.409,64.139 0.6,66.366 1.004,68.796 C1.408,72.237 6.066,74.056 8.292,73.046 C10.519,72.032 11.733,70.212 12.946,68.394 C15.173,64.542 17.399,60.699 19.625,56.853 C25.293,46.529 31.569,36.612 38.854,27.505 C42.498,22.849 46.545,18.598 51.404,15.158 C53.631,13.741 55.857,12.527 58.69,12.322 C59.704,12.122 60.512,12.728 60.715,13.742 C60.917,14.953 61.322,16.372 60.917,17.586 C60.108,20.217 59.097,22.849 57.678,25.279 C52.618,33.983 47.355,42.685 42.296,51.388 C40.069,55.033 38.046,59.079 36.224,62.923 C35.212,64.95 36.224,67.784 38.451,68.796 C40.88,70.011 43.715,70.011 44.927,67.581 C49.38,58.878 54.036,50.175 58.691,41.673 C62.336,34.789 67.193,28.718 73.873,24.265 C76.302,22.644 78.73,21.433 81.768,20.825 C83.387,20.417 84.6,21.228 84.399,22.848 C84.399,23.859 84.195,24.87 83.588,25.681 C81.564,29.529 79.337,33.171 77.315,37.014 C73.874,42.886 70.231,48.755 68.408,55.641 C67.598,58.674 66.99,61.912 68.205,65.354 C70.431,71.426 76.908,75.879 83.588,72.641 C87.232,70.819 89.862,68.188 92.293,65.151 C92.897,64.342 93.709,63.532 94.316,62.723 C94.316,63.33 94.52,63.532 94.52,63.735 C95.124,66.366 95.936,68.796 98.567,70.413 C102.412,72.642 106.057,72.032 109.295,69.806 C112.938,67.378 115.164,63.939 117.391,60.497 C117.999,59.485 118.808,58.27 119.415,57.056 C119.415,57.056 119.618,57.056 119.618,57.259 C119.618,57.46 119.415,57.864 119.415,58.068 C119.01,59.89 118.202,61.914 118.202,63.736 C117.999,66.57 119.215,69.404 122.25,70.617 C124.274,71.428 126.298,71.023 128.322,70.01 C131.56,68.391 135.608,66.164 137.632,63.332 C138.039,62.924 138.239,62.316 138.647,61.914 C141.074,59.687 144.919,54.018 147.146,50.984 C149.373,48.148 150.791,44.709 153.624,42.281 C154.637,41.877 155.445,41.47 157.064,41.066 C159.29,40.863 163.135,40.863 170.221,41.877 C168.399,43.09 167.588,44.102 165.159,45.52 C162.123,47.543 157.873,49.77 154.433,52.2 C149.575,55.843 146.337,59.891 142.692,65.356 C142.491,65.559 142.491,66.165 142.287,66.975 L142.287,69.202 L142.287,69.405 C142.287,70.618 143.3,71.833 144.719,71.833 L144.919,71.833 L145.122,71.833 C145.527,71.833 145.931,71.632 146.337,71.632 C146.538,71.429 146.943,71.224 147.146,71.025 C147.754,70.619 148.157,70.416 148.765,70.214 C149.576,69.808 150.589,69.607 151.6,69.607 C153.421,69.607 155.243,69.808 157.268,70.214 C157.671,70.214 158.077,70.415 158.482,70.415 C160.303,70.821 160.909,71.224 162.732,71.632 C164.554,72.034 166.375,72.237 167.994,72.237 L169.816,72.237 C172.042,72.034 174.269,71.223 176.496,70.01 C178.52,68.594 180.546,66.975 182.365,64.951 C183.783,63.533 184.794,62.115 186.011,60.498 C186.011,60.699 186.211,60.902 186.211,61.307 C186.211,62.317 186.211,63.332 186.416,64.141 L186.416,64.344 C186.818,66.367 187.628,68.391 189.248,70.01 C192.282,72.844 195.726,73.25 199.168,72.033 C202.405,71.023 204.834,68.797 207.061,66.57 C207.466,66.164 207.667,65.961 208.275,65.355 C208.477,65.96 208.679,66.367 208.679,66.769 C209.084,68.593 210.096,70.009 211.512,71.023 C211.715,71.222 212.12,71.427 212.323,71.427 L212.527,71.63 C212.93,71.831 213.336,72.032 213.739,72.235 C216.169,73.249 218.394,72.842 220.218,71.831 C221.229,71.427 222.036,70.819 223.053,70.009 C224.872,68.593 226.087,66.974 227.301,65.152 C228.11,63.736 228.922,62.521 229.529,61.105 C230.135,59.89 231.146,57.259 231.755,54.828 C231.345,54.626 231.547,54.017 231.142,53.815 M200.175,40.052 L210.699,20.215 C212.722,16.773 215.152,13.536 217.58,10.298 C218.187,9.488 218.998,8.477 220.214,8.275 C221.023,8.072 221.426,8.275 221.426,9.084 C221.225,10.299 221.023,11.715 220.617,12.931 C218.796,18.194 215.961,23.051 212.926,27.704 C209.889,32.36 206.449,36.813 202.604,40.864 C200.985,42.483 199.165,43.899 197.542,45.518 C198.556,43.493 199.164,41.671 200.175,40.052" id="Shape"></path>
        </g>
    </g>
</svg>