<?xml version="1.0" encoding="UTF-8"?>
<svg width="32px" height="33px" viewBox="0 0 32 33" version="1.1" xmlns="http://www.w3.org/2000/svg" xmlns:xlink="http://www.w3.org/1999/xlink">
    <!-- Generator: Sketch 51.1 (57501) - http://www.bohemiancoding.com/sketch -->
    <title>Shape</title>
    <desc>Created with Sketch.</desc>
    <defs></defs>
    <g id="Page-1" stroke="none" stroke-width="1" fill="none" fill-rule="evenodd">
        <g id="Desktop-HD" transform="translate(-327.000000, -805.000000)" fill="#2274FF" fill-rule="nonzero">
            <g id="Group-6-Copy-2" transform="translate(307.000000, 786.000000)">
                <g id="flaticon1535885923-svg" transform="translate(19.000000, 19.000000)">
                    <path d="M17.4531987,0.335069056 L32.2463759,7.85610684 C32.7386866,8.10640382 32.9348776,8.70840633 32.6845806,9.20071707 C32.5885998,9.38950231 32.4351611,9.54294094 32.2463759,9.63892173 L17.4531987,17.1599595 C17.1684125,17.3047484 16.8315869,17.3047496 16.5467996,17.1599628 L1.75335343,9.63892506 C1.26104085,9.38863169 1.06484552,8.78663063 1.31513889,8.29431805 C1.41112057,8.10552763 1.56456301,7.95208519 1.75335343,7.85610351 L16.5467996,0.335065727 C16.8315869,0.190278922 17.1684125,0.190280159 17.4531987,0.335069056 Z M16.5467981,20.3028192 L5.19248714,14.5302493 C4.90770218,14.3854637 4.57087963,14.3854637 4.28609467,14.5302493 L1.75335343,15.8179035 C1.26104085,16.0681969 1.06484552,16.6701979 1.31513889,17.1625105 C1.41112057,17.3513009 1.56456301,17.5047434 1.75335343,17.6007251 L16.5467996,25.1217628 C16.8315869,25.2665496 17.1684125,25.2665484 17.4531987,25.1217595 L32.24636,17.6007298 C32.7386707,17.3504329 32.9348616,16.7484303 32.6845646,16.2561196 C32.5885827,16.0673321 32.4351416,15.9138922 32.2463534,15.8179116 L29.7136019,14.5302523 C29.4288138,14.385465 29.0919871,14.3854667 28.8072004,14.5302569 L17.4531996,20.3028146 C17.1684129,20.4476047 16.8315862,20.4476064 16.5467981,20.3028192 Z M16.5467981,27.8456763 L5.19248714,22.0731065 C4.90770218,21.9283209 4.57087963,21.9283209 4.28609467,22.0731065 L1.75335343,23.3607607 C1.26104085,23.611054 1.06484552,24.2130551 1.31513889,24.7053677 C1.41112057,24.8941581 1.56456301,25.0476005 1.75335343,25.1435822 L16.5467996,32.66462 C16.8315869,32.8094068 17.1684125,32.8094056 17.4531987,32.6646167 L32.24636,25.143587 C32.7386707,24.89329 32.9348616,24.2912875 32.6845646,23.7989767 C32.5885827,23.6101893 32.4351416,23.4567493 32.2463534,23.3607688 L29.7136019,22.0731094 C29.4288138,21.9283221 29.0919871,21.9283239 28.8072004,22.073114 L17.4531996,27.8456717 C17.1684129,27.9904619 16.8315862,27.9904636 16.5467981,27.8456763 Z" id="Shape"></path>
                </g>
            </g>
        </g>
    </g>
</svg>