<?xml version="1.0" encoding="UTF-8"?>
<svg width="34px" height="33px" viewBox="0 0 34 33" version="1.1" xmlns="http://www.w3.org/2000/svg" xmlns:xlink="http://www.w3.org/1999/xlink">
    <!-- Generator: Sketch 51.1 (57501) - http://www.bohemiancoding.com/sketch -->
    <title>Shape</title>
    <desc>Created with Sketch.</desc>
    <defs></defs>
    <g id="Page-1" stroke="none" stroke-width="1" fill="none" fill-rule="evenodd">
        <g id="Desktop-HD" transform="translate(-668.000000, -805.000000)" fill="#19CF45" fill-rule="nonzero">
            <g id="Group-6" transform="translate(649.000000, 786.000000)">
                <g id="open-source" transform="translate(19.000000, 19.000000)">
                    <path d="M17,0.00958064516 C7.626625,0.00958064516 0,7.65067742 0,17.0418387 C0,24.0484839 4.383875,30.4291935 10.9055,32.9180323 C11.1775,33.0266129 11.4835,33.0095806 11.747,32.8818387 C12.0105,32.7519677 12.21025,32.5220323 12.297375,32.241 L15.484875,22.0429355 C15.63575,21.5596452 15.4275,21.0359032 14.9855,20.7931935 C13.606375,20.031 12.75,18.5939032 12.75,17.0418387 C12.75,14.6935161 14.656125,12.7837742 17,12.7837742 C19.343875,12.7837742 21.25,14.6935161 21.25,17.0418387 C21.25,18.5939032 20.393625,20.031 19.0145,20.7953226 C18.5725,21.0380323 18.362125,21.5617742 18.515125,22.0450645 L21.702625,32.243129 C21.78975,32.5241613 21.9895,32.7540968 22.253,32.8839677 C22.399625,32.9542258 22.559,32.9904194 22.71625,32.9904194 C22.84375,32.9904194 22.973375,32.967 23.0945,32.9201613 C29.61825,30.4291935 34,24.0484839 34,17.0418387 C34,7.65067742 26.373375,0.00958064516 17,0.00958064516 Z" id="Shape"></path>
                </g>
            </g>
        </g>
    </g>
</svg>