<svg id="Layer_1" data-name="Layer 1" xmlns="http://www.w3.org/2000/svg" viewBox="0 0 785.48 264"><defs><style>.cls-1,.cls-3{fill:#9e9fa1;}.cls-1,.cls-2{opacity:0.9;}</style></defs><title>invision-logo-gray</title><path class="cls-1" d="M755.7,326H781V215.7H755.7ZM848,260.8c-13-4.18-24.86-7.52-24.86-15.45v-.42c0-6.48,5.64-11.07,15.46-11.07a48.52,48.52,0,0,1,15.68,3h0l.16.07,1.45.54c4,1.26,14.77,2.95,23.86-11.15-11.7-7.73-26.73-12.54-40.52-12.54-21.92,0-39.25,12.74-39.25,33.62v.42c0,21.09,18.16,27.77,34.45,32.37,13,4,24.64,6.89,24.64,15.45v.41c0,7.31-6.26,11.91-17.12,11.91a54.69,54.69,0,0,1-23-5.62c-2.27-1-14.06-5-24.15,9.35A77.45,77.45,0,0,0,841.31,328c23,0,40.93-11.48,40.93-34.67V293C882.24,273.12,864.07,265.81,848,260.8ZM686.8,296.71l-29.65-81H630l45.31,111.08h22.77l45.1-111.08H716.66ZM999.59,213.4c-33.83,0-58.89,26.09-58.89,57.84,0,31.53,24.85,57.21,58.47,57.21,34,0,59.1-26.1,59.1-57.63C1058.27,239.08,1033.41,213.4,999.59,213.4Zm0,93.13C980,306.53,966,290.45,966,270.82c0-19.42,12.94-35.29,33.2-35.29,19.84,0,33.83,16.08,33.83,35.71C1033,290.66,1020.05,306.53,999.59,306.53Zm133.64-93.13c-17.13,0-27.36,9-34.46,19.42V215.7h-25.26V326h25.26V263.72c0-17.12,10.23-27.35,24.85-27.35,15,0,23.6,9.81,23.6,26.93V326h25.26V255.79C1172.48,230.1,1158.07,213.4,1133.23,213.4ZM898.94,326h25.27V215.7H898.94Z" transform="translate(-387 -121)"/><g class="cls-2"><path class="cls-3" d="M651,144.93A23.93,23.93,0,0,0,627.07,121H410.93A23.93,23.93,0,0,0,387,144.93V361.07A23.93,23.93,0,0,0,410.93,385H627.07A23.93,23.93,0,0,0,651,361.07Zm-176,27.6a15.89,15.89,0,1,1-16.13,15.89A15.95,15.95,0,0,1,475,172.53Zm107.89,152c-16.36,0-24.19-9.72-24.19-23a42.29,42.29,0,0,1,1.66-11.86l7.83-28a28.32,28.32,0,0,0,1.19-8.53c0-9-5.46-14.47-14.24-14.47-11.14,0-18.49,8-22.29,23.42L517.64,323H491.08l4.77-19.13c-7.81,12.82-18.65,20.77-32,20.77-16.13,0-23.71-9.29-23.71-23.29a54.45,54.45,0,0,1,1.42-11.94L453.62,240H434.89l5.69-21h45.06l-17.79,70.56a45,45,0,0,0-1.66,10.86c0,4.51,2.22,5.83,5.7,6.61,2.11.47,19,.14,28.14-20.25L511.71,240h-19l5.69-21H539l-5.22,23.84c7.11-13.28,21.34-25.9,35.34-25.9,14.94,0,27.27,10.64,27.27,31a60,60,0,0,1-2.61,17.29l-7.59,27.27a31.37,31.37,0,0,0-1.18,7.35c0,4.74,1.89,7.11,5.45,7.11s8.07-2.61,13.28-17.07l10.44,4C608,315.54,596.86,324.55,582.86,324.55Z" transform="translate(-387 -121)"/></g></svg>