<?xml version="1.0" encoding="UTF-8"?>
<svg width="40px" height="8px" viewBox="0 0 40 8" version="1.1" xmlns="http://www.w3.org/2000/svg" xmlns:xlink="http://www.w3.org/1999/xlink">
    <!-- Generator: Sketch 50.2 (55047) - http://www.bohemiancoding.com/sketch -->
    <title>logo-4</title>
    <desc>Created with Sketch.</desc>
    <defs></defs>
    <g id="Page-1" stroke="none" stroke-width="1" fill="none" fill-rule="evenodd">
        <g id="logo-4" transform="translate(-1.000000, -1.000000)" fill="#999999" fill-rule="nonzero">
            <g id="g3678" transform="translate(0.839700, 0.540632)">
                <path d="M10.435748,4.04159 L8.106358,1.69844 L8.107046,1.70044 C7.421968,1.0157 6.476528,0.59166 5.433708,0.59166 L5.433364,0.59166 L5.433364,1.53781 C5.555784,1.53781 5.679954,1.54581 5.805894,1.56281 C7.183494,1.74978 8.249944,2.94076 8.270754,4.33106 C8.294354,5.91538 7.012754,7.21184 5.433713,7.21184 C3.869144,7.21184 2.596324,5.93902 2.596324,4.37445 C2.596324,4.37374 2.596324,4.37245 2.596324,4.37245 L2.596324,1.86315 L0.429908,4.04226 C0.246818,4.22641 0.246818,4.5238 0.429908,4.70795 L2.759308,7.0511 L2.758308,7.0471 C3.443758,7.73325 4.389908,8.15835 5.434128,8.15835 C6.476948,8.15835 7.422388,7.73431 8.107478,7.04957 L8.10679,7.05157 L10.43618,4.70842 C10.61927,4.52427 10.61927,4.22688 10.43618,4.04273" id="path486"></path>
                <path d="M4.487778,0.71197 C4.152288,0.79877 3.834788,0.93034 3.541978,1.10038 L3.541978,4.37451 C3.541978,5.44201 4.431338,6.30597 5.508008,6.26434 C6.480618,6.22694 7.286008,5.42226 7.323758,4.44965 C7.365758,3.37262 6.501438,2.48256 5.433578,2.48256 C5.088908,2.48256 4.766468,2.57716 4.487778,2.73868 L4.487778,0.71197 Z M4.487778,4.37451 L4.487778,4.37351 C4.488492,3.85245 4.912518,3.42912 5.433578,3.42912 C5.955338,3.42912 6.379368,3.85316 6.379368,4.37492 C6.379368,4.89632 5.955338,5.32036 5.433578,5.32036 C4.912168,5.32036 4.487778,4.89632 4.487778,4.37492 L4.487778,4.37451 Z" id="path490"></path>
            </g>
            <g id="g3663" transform="translate(12.839700, 2.540632)">
                <path d="M0.649178,0.55689 L2.526658,0.55689 C2.987038,0.55689 3.311238,0.6719 3.525728,0.88109 C3.672128,1.03279 3.761028,1.22646 3.761028,1.47764 L3.761028,1.48784 C3.761028,1.91153 3.520438,2.1627 3.196238,2.30382 C3.640738,2.45022 3.923308,2.7014 3.923308,3.19811 L3.923308,3.20871 C3.923308,3.8363 3.410718,4.21801 2.537248,4.21801 L0.649178,4.21801 L0.649178,0.55689 Z M2.762318,1.68648 C2.762318,1.48258 2.600038,1.37286 2.301938,1.37286 L1.637658,1.37286 L1.637658,2.01598 L2.275838,2.01598 C2.584518,2.01598 2.762318,1.91156 2.762318,1.69707 L2.762318,1.68648 Z M2.411658,2.72753 L1.637658,2.72753 L1.637658,3.40204 L2.422238,3.40204 C2.736208,3.40204 2.908718,3.28175 2.908718,3.06726 L2.908718,3.05706 C2.908718,2.85844 2.751738,2.72756 2.411658,2.72756 L2.411658,2.72753 Z" id="path494"></path>
                <path d="M6.177778,0.53071 L7.155678,0.53071 L8.714598,4.21794 L7.626638,4.21794 L7.365228,3.55895 L5.947768,3.55895 L5.686008,4.21794 L4.624498,4.21794 L6.177778,0.53071 Z M7.067128,2.76944 L6.658968,1.73368 L6.245868,2.76944 L7.067128,2.76944 Z" id="path498"></path>
                <polygon id="path502" points="9.593408 0.55692 10.607998 0.55692 10.607998 3.32905 12.381058 3.32905 12.381058 4.21805 9.593408 4.21805"></polygon>
                <path d="M14.609338,0.53071 L15.587237,0.53071 L17.146157,4.21794 L16.058198,4.21794 L15.796438,3.55895 L14.379328,3.55895 L14.117918,4.21794 L13.056058,4.21794 L14.609338,0.53071 Z M15.498337,2.76944 L15.090527,1.73368 L14.677428,2.76944 L15.498337,2.76944 Z" id="path506"></path>
                <path d="M18.025007,0.55689 L19.902848,0.55689 C20.362868,0.55689 20.687067,0.6719 20.901557,0.88109 C21.047959,1.03279 21.136859,1.22646 21.136859,1.47764 L21.136859,1.48784 C21.136859,1.91153 20.896268,2.1627 20.572069,2.30382 C21.016569,2.45022 21.299139,2.7014 21.299139,3.19811 L21.299139,3.20871 C21.299139,3.8363 20.786548,4.21801 19.913079,4.21801 L18.025007,4.21801 L18.025007,0.55689 Z M20.138147,1.68648 C20.138147,1.48258 19.975867,1.37286 19.677767,1.37286 L19.013488,1.37286 L19.013488,2.01598 L19.651668,2.01598 C19.960347,2.01598 20.138147,1.91156 20.138147,1.69707 L20.138147,1.68648 Z M19.787487,2.72753 L19.013488,2.72753 L19.013488,3.40204 L19.798067,3.40204 C20.112038,3.40204 20.284549,3.28175 20.284549,3.06726 L20.284549,3.05706 C20.284549,2.85844 20.127569,2.72756 19.787487,2.72756 L19.787487,2.72753 Z" id="path518"></path>
                <polygon id="path520" points="22.313898 0.55678 23.328487 0.55678 23.328487 4.21791 22.313898 4.21791"></polygon>
                <polygon id="path524" points="25.4157 1.44606 24.32244 1.44606 24.32244 0.55671 27.52884 0.55671 27.52884 1.44606 26.43029 1.44606 26.43029 4.21819 25.4157 4.21819"></polygon>
            </g>
        </g>
    </g>
</svg>