<?xml version="1.0" encoding="UTF-8"?>
<svg width="118px" height="19px" viewBox="0 0 118 19" version="1.1" xmlns="http://www.w3.org/2000/svg" xmlns:xlink="http://www.w3.org/1999/xlink">
    <!-- Generator: Sketch 50.2 (55047) - http://www.bohemiancoding.com/sketch -->
    <title>logo</title>
    <desc>Created with Sketch.</desc>
    <defs></defs>
    <g id="Page-1" stroke="none" stroke-width="1" fill="none" fill-rule="evenodd">
        <g id="home_1" transform="translate(-251.000000, -77.000000)">
            <g id="Group-15" transform="translate(251.000000, 30.000000)">
                <g id="logo" transform="translate(0.000000, 47.000000)">
                    <g id="Group-13">
                        <circle id="Oval" fill="#2F5BE7" style="mix-blend-mode: multiply;" cx="9.5" cy="9.5" r="9.5"></circle>
                        <circle id="Oval-Copy" fill="#2FE7B1" style="mix-blend-mode: multiply;" cx="18.5" cy="9.5" r="9.5"></circle>
                    </g>
                    <path d="M43.8776151,3 L47,3 L47,16 L44.9759414,16 L44.9759414,5.535 L44.8661088,5.535 C44.6621339,5.99 44.4424686,6.5425 44.3012552,6.8675 L40.4884937,16 L38.542887,16 L34.6516736,6.8675 C34.5261506,6.55875 34.290795,5.9575 34.0868201,5.51875 L33.9926778,5.51875 L33.9926778,16 L32,16 L32,3 L35.0910042,3 L39.5313808,13.465 L43.8776151,3 Z M55.1521036,14.18 L63,14.18 L63,16 L53,16 L53,3 L62.8381877,3 L62.8381877,4.82 L55.1521036,4.82 L55.1521036,8.5575 L62.5145631,8.5575 L62.5145631,10.3125 L55.1521036,10.3125 L55.1521036,14.18 Z M77.6507937,3 L80,3 L74.3650794,16 L71.6349206,16 L66,3 L68.4126984,3 L73.031746,14.13125 L77.6507937,3 Z M86,16 L84,16 L84,3 L86,3 L86,16 Z M101.850746,3 L104,3 L104,10.6339066 C104,13.9398034 101.671642,16 98.0244233,16 C94.4260516,16 92,13.9398034 92,10.6339066 L92,3 L94.165536,3 L94.165536,10.3144963 C94.165536,12.6461916 95.7449118,14.0835381 98.07327,14.0835381 C100.41791,14.0835381 101.899593,12.6461916 101.883311,10.3144963 L101.850746,3 Z M112.622642,16 C110.987421,16 109.257862,15.6074879 108,14.9794686 L108,13.0326087 C109.430818,13.8333333 111.160377,14.147343 112.481132,14.147343 C114.430818,14.147343 115.908805,13.4879227 115.908805,12.294686 C115.908805,11.384058 115.264151,10.7874396 113.251572,10.4263285 L112.040881,10.2065217 C108.974843,9.65700483 108.04717,8.13405797 108.04717,6.62681159 C108.04717,4.08333333 110.562893,3 113.534591,3 C114.792453,3 115.971698,3.20410628 117.355346,3.69082126 L117.355346,5.57487923 C115.940252,5.00966184 114.556604,4.852657 113.534591,4.852657 C111.915094,4.852657 110.122642,5.26086957 110.122642,6.46980676 C110.122642,7.25483092 110.578616,7.80434783 112.90566,8.25966184 L114.022013,8.4794686 C116.977987,9.06038647 118,10.3321256 118,12.0434783 C118,14.6497585 115.578616,16 112.622642,16 Z" id="Mevius-Copy" fill="#000000"></path>
                </g>
            </g>
        </g>
    </g>
</svg>