<svg viewBox="0 0 154.415039 22.4384766" xmlns="http://www.w3.org/2000/svg">
    <g fill="currentColor">
        <path
            d="M153.887695,7.76953125 C154.045898,8.390625 154.17334,8.97802734 154.27002,9.53173828 C154.366699,10.0854492 154.415039,10.5849609 154.415039,11.0302734 C154.415039,12.1494141 154.114746,13.0078125 153.51416,13.6054688 C152.913574,14.203125 151.954102,14.5019531 150.635742,14.5019531 L150.1875,14.5019531 C150.017578,14.5019531 149.932617,14.2617188 149.932617,13.78125 C149.932617,13.3066406 150.017578,13.0693359 150.1875,13.0693359 L150.635742,13.0693359 C151.520508,13.0693359 152.150391,12.890625 152.525391,12.5332031 C152.900391,12.1757812 153.087891,11.6513672 153.087891,10.9599609 C153.087891,10.6083984 153.04248,10.190918 152.95166,9.70751953 C152.86084,9.22412109 152.745117,8.6953125 152.604492,8.12109375 L153.887695,7.76953125 Z M150.292969,17.6572266 L151.444336,16.5058594 L152.604492,17.6572266 L151.444336,18.8173828 L150.292969,17.6572266 Z"
            id="Shape"></path>
        <polygon id="Path"
            points="153.351562 20.4169922 153.588867 21.1640625 149.572266 22.4384766 149.334961 21.6826172">
        </polygon>
        <path
            d="M146.786133,12.2167969 C146.692383,12.9785156 146.458008,13.5498047 146.083008,13.9306641 C145.708008,14.3115234 145.171875,14.5019531 144.474609,14.5019531 C143.789062,14.5019531 143.255859,14.3378906 142.875,14.0097656 C142.494141,13.6816406 142.242188,13.2363281 142.119141,12.6738281 L142.03125,12.6738281 C141.720703,13.8925781 140.929688,14.5019531 139.658203,14.5019531 C138.949219,14.5019531 138.398438,14.324707 138.005859,13.9702148 C137.613281,13.6157227 137.361328,13.1132812 137.25,12.4628906 L137.162109,12.4628906 C136.96875,13.0722656 136.595215,13.5644531 136.041504,13.9394531 C135.487793,14.3144531 134.81543,14.5019531 134.024414,14.5019531 L133.576172,14.5019531 C133.40625,14.5019531 133.321289,14.2587891 133.321289,13.7724609 C133.321289,13.3037109 133.40625,13.0693359 133.576172,13.0693359 L134.024414,13.0693359 C134.891602,13.0693359 135.528809,12.8583984 135.936035,12.4365234 C136.343262,12.0146484 136.602539,11.3320312 136.713867,10.3886719 L136.845703,9.07910156 L138.225586,9.18457031 L138.058594,10.9248047 C137.982422,11.6044922 138.089355,12.1318359 138.379395,12.5068359 C138.669434,12.8818359 139.119141,13.0693359 139.728516,13.0693359 C140.267578,13.0693359 140.668945,12.909668 140.932617,12.590332 C141.196289,12.2709961 141.363281,11.7626953 141.433594,11.0654297 L141.574219,9.4921875 L142.822266,9.59765625 L142.699219,11.0830078 C142.640625,11.7568359 142.756348,12.2563477 143.046387,12.581543 C143.336426,12.9067383 143.756836,13.0693359 144.307617,13.0693359 C145.356445,13.0693359 145.880859,12.4658203 145.880859,11.2587891 C145.880859,11.0068359 145.854492,10.6743164 145.801758,10.2612305 C145.749023,9.84814453 145.678711,9.421875 145.59082,8.98242188 L146.926758,8.70996094 L147.146484,10.1777344 C147.257812,10.8984375 147.427734,11.4697266 147.65625,11.8916016 C147.884766,12.3134766 148.202637,12.6152344 148.609863,12.796875 C149.01709,12.9785156 149.537109,13.0693359 150.169922,13.0693359 L150.1875,13.0693359 L150.1875,14.5019531 L150.169922,14.5019531 C149.214844,14.5019531 148.464844,14.3012695 147.919922,13.8999023 C147.375,13.4985352 147.026367,12.9375 146.874023,12.2167969 L146.786133,12.2167969 Z"
            id="Path"></path>
        <path
            d="M130.579102,10.3271484 C130.579102,10.9248047 130.637695,11.4272461 130.754883,11.8344727 C130.87207,12.2416992 131.100586,12.5493164 131.44043,12.7573242 C131.780273,12.965332 132.27832,13.0693359 132.93457,13.0693359 L133.576172,13.0693359 L133.576172,14.5019531 L132.899414,14.5019531 C132.155273,14.5019531 131.516602,14.3217773 130.983398,13.9614258 C130.450195,13.6010742 130.095703,13.0869141 129.919922,12.4189453 L129.832031,12.4189453 C129.662109,13.0927734 129.275391,13.6083984 128.671875,13.9658203 C128.068359,14.3232422 127.385742,14.5019531 126.624023,14.5019531 L126.175781,14.5019531 C126.005859,14.5019531 125.920898,14.2617188 125.920898,13.78125 C125.920898,13.3066406 126.005859,13.0693359 126.175781,13.0693359 L126.624023,13.0693359 C127.344727,13.0693359 127.889648,12.9638672 128.258789,12.7529297 C128.62793,12.5419922 128.876953,12.2329102 129.005859,11.8256836 C129.134766,11.418457 129.199219,10.9189453 129.199219,10.3271484 L129.199219,9.140625 L130.579102,9.140625 L130.579102,10.3271484 Z M126.333984,5.79199219 L127.485352,4.640625 L128.636719,5.79199219 L127.485352,6.95214844 L126.333984,5.79199219 Z M129.392578,5.79199219 L130.543945,4.640625 L131.704102,5.79199219 L130.543945,6.95214844 L129.392578,5.79199219 Z"
            id="Shape"></path>
        <polygon id="Path" points="130.921875 0 131.15918 0.747070312 127.142578 2.02148438 126.905273 1.265625">
        </polygon>
        <path
            d="M121.174805,5.78320312 L123.556641,11.3203125 C123.855469,12.0175781 124.187988,12.4833984 124.554199,12.7177734 C124.92041,12.9521484 125.414062,13.0693359 126.035156,13.0693359 L126.175781,13.0693359 L126.175781,14.5019531 L126.035156,14.5019531 C125.261719,14.5019531 124.604004,14.3510742 124.062012,14.0493164 C123.52002,13.7475586 123.111328,13.2421875 122.835938,12.5332031 L122.748047,12.5332031 C122.460938,13.1894531 121.984863,13.6962891 121.319824,14.0537109 C120.654785,14.4111328 119.923828,14.5898438 119.126953,14.5898438 C118.552734,14.5898438 117.977051,14.4873047 117.399902,14.2822266 C116.822754,14.0771484 116.282227,13.7636719 115.77832,13.3417969 L116.463867,12.1464844 C116.891602,12.4863281 117.335449,12.7382812 117.79541,12.9023438 C118.255371,13.0664062 118.713867,13.1484375 119.170898,13.1484375 C119.756836,13.1484375 120.317871,13.0151367 120.854004,12.7485352 C121.390137,12.4819336 121.822266,12.09375 122.150391,11.5839844 L119.856445,6.40722656 L121.174805,5.78320312 Z"
            id="Path"></path>
        <path
            d="M110.469727,11.2148438 C110.469727,12.0175781 110.254395,12.6650391 109.82373,13.1572266 C109.393066,13.6494141 108.830566,14.0083008 108.13623,14.2338867 C107.441895,14.4594727 106.696289,14.5722656 105.899414,14.5722656 C105.500977,14.5722656 105.089355,14.5444336 104.664551,14.4887695 C104.239746,14.4331055 103.804688,14.3466797 103.359375,14.2294922 L103.675781,12.8759766 C104.085938,12.9755859 104.471191,13.0458984 104.831543,13.0869141 C105.191895,13.1279297 105.541992,13.1484375 105.881836,13.1484375 C106.889648,13.1484375 107.679199,12.9858398 108.250488,12.6606445 C108.821777,12.3354492 109.107422,11.8505859 109.107422,11.2060547 C109.107422,10.6142578 108.849609,9.94042969 108.333984,9.18457031 C107.818359,8.42871094 107.080078,7.62011719 106.119141,6.75878906 L107.041992,5.66015625 C108.178711,6.67382812 109.03418,7.63916016 109.608398,8.55615234 C110.182617,9.47314453 110.469727,10.359375 110.469727,11.2148438 Z"
            id="Path"></path>
        <path
            d="M96.1875,17.5517578 C97.4179688,17.5517578 98.3261719,17.2397461 98.9121094,16.6157227 C99.4980469,15.9916992 99.7910156,15.0263672 99.7910156,13.7197266 L99.7910156,2.8828125 L101.170898,2.8828125 L101.170898,13.8076172 C101.170898,15.5185547 100.727051,16.809082 99.8393555,17.6791992 C98.9516602,18.5493164 97.6787109,18.984375 96.0205078,18.984375 C94.5615234,18.984375 93.4277344,18.6005859 92.6191406,17.8330078 C91.8105469,17.0654297 91.40625,15.9755859 91.40625,14.5634766 C91.40625,14.0595703 91.4604492,13.5102539 91.5688477,12.9155273 C91.6772461,12.3208008 91.8515625,11.6513672 92.0917969,10.9072266 L93.3310547,11.2763672 C93.1259766,11.8974609 92.9736328,12.4804688 92.8740234,13.0253906 C92.7744141,13.5703125 92.7246094,14.0566406 92.7246094,14.484375 C92.7246094,16.5292969 93.8789062,17.5517578 96.1875,17.5517578 Z"
            id="Path"></path>
        <path
            d="M84.7441406,14.3789062 L84.6914062,14.2910156 C84.3984375,14.3730469 84.0761719,14.4418945 83.7246094,14.4975586 C83.3730469,14.5532227 83.0039062,14.5810547 82.6171875,14.5810547 C81.703125,14.5810547 80.980957,14.3671875 80.4506836,13.9394531 C79.9204102,13.5117188 79.6552734,12.8378906 79.6552734,11.9179688 C79.6552734,11.2382812 79.7651367,10.5864258 79.9848633,9.96240234 C80.2045898,9.33837891 80.5385742,8.82861328 80.9868164,8.43310547 C81.4350586,8.03759766 81.9990234,7.83984375 82.6787109,7.83984375 C83.3115234,7.83984375 83.8447266,8.02001953 84.2783203,8.38037109 C84.7119141,8.74072266 85.0620117,9.21679688 85.3286133,9.80859375 C85.5952148,10.4003906 85.7871094,11.0463867 85.9042969,11.746582 C86.0214844,12.4467773 86.0800781,13.1396484 86.0800781,13.8251953 C86.0800781,15.1494141 85.5380859,16.2495117 84.4541016,17.1254883 C83.3701172,18.0014648 81.8466797,18.7001953 79.8837891,19.2216797 L79.3300781,17.9033203 C80.9355469,17.5400391 82.2070312,17.0566406 83.1445312,16.453125 C84.0820312,15.8496094 84.6152344,15.1582031 84.7441406,14.3789062 Z M84.7441406,12.9199219 C84.7265625,12.5390625 84.6782227,12.1376953 84.5991211,11.7158203 C84.5200195,11.2939453 84.3999023,10.8999023 84.2387695,10.5336914 C84.0776367,10.1674805 83.8666992,9.86865234 83.605957,9.63720703 C83.3452148,9.40576172 83.0244141,9.29003906 82.6435547,9.29003906 C82.2333984,9.29003906 81.8950195,9.41455078 81.628418,9.66357422 C81.3618164,9.91259766 81.1625977,10.2260742 81.0307617,10.6040039 C80.8989258,10.9819336 80.8330078,11.3642578 80.8330078,11.7509766 C80.8330078,12.2958984 80.9970703,12.6708984 81.3251953,12.8759766 C81.6533203,13.0810547 82.0957031,13.1835938 82.6523438,13.1835938 C83.0507812,13.1835938 83.4243164,13.1572266 83.7729492,13.1044922 C84.121582,13.0517578 84.4453125,12.9902344 84.7441406,12.9199219 Z"
            id="Shape"></path>
        <path
            d="M74.1445312,11.2148438 C74.1445312,12.0175781 73.9291992,12.6650391 73.4985352,13.1572266 C73.0678711,13.6494141 72.5053711,14.0083008 71.8110352,14.2338867 C71.1166992,14.4594727 70.3710938,14.5722656 69.5742188,14.5722656 C69.1757812,14.5722656 68.7641602,14.5444336 68.3393555,14.4887695 C67.9145508,14.4331055 67.4794922,14.3466797 67.0341797,14.2294922 L67.3505859,12.8759766 C67.7607422,12.9755859 68.1459961,13.0458984 68.5063477,13.0869141 C68.8666992,13.1279297 69.2167969,13.1484375 69.5566406,13.1484375 C70.5644531,13.1484375 71.3540039,12.9858398 71.925293,12.6606445 C72.496582,12.3354492 72.7822266,11.8505859 72.7822266,11.2060547 C72.7822266,10.6142578 72.5244141,9.94042969 72.0087891,9.18457031 C71.4931641,8.42871094 70.7548828,7.62011719 69.7939453,6.75878906 L70.7167969,5.66015625 C71.8535156,6.67382812 72.7089844,7.63916016 73.2832031,8.55615234 C73.8574219,9.47314453 74.1445312,10.359375 74.1445312,11.2148438 Z"
            id="Path"></path>
        <path
            d="M59.5722656,17.6572266 L60.7236328,16.5058594 L61.875,17.6572266 L60.7236328,18.8173828 L59.5722656,17.6572266 Z M62.6308594,17.6572266 L63.7822266,16.5058594 L64.9423828,17.6572266 L63.7822266,18.8173828 L62.6308594,17.6572266 Z M64.7226562,7.76953125 C64.8808594,8.390625 65.0068359,8.97802734 65.1005859,9.53173828 C65.1943359,10.0854492 65.2412109,10.5849609 65.2412109,11.0302734 C65.2412109,12.1494141 64.9277344,13.0078125 64.3007812,13.6054688 C63.6738281,14.203125 62.6074219,14.5019531 61.1015625,14.5019531 L60.3632812,14.5019531 C60.1933594,14.5019531 60.1083984,14.2617188 60.1083984,13.78125 C60.1083984,13.3066406 60.1933594,13.0693359 60.3632812,13.0693359 L61.1015625,13.0693359 C62.1679688,13.0693359 62.9033203,12.890625 63.3076172,12.5332031 C63.7119141,12.1757812 63.9140625,11.6513672 63.9140625,10.9599609 C63.9140625,10.6083984 63.8686523,10.190918 63.777832,9.70751953 C63.6870117,9.22412109 63.5712891,8.6953125 63.4306641,8.12109375 L64.7226562,7.76953125 Z"
            id="Shape"></path>
        <path
            d="M51.1171875,11.1708984 L52.2685547,10.0195312 L53.4287109,11.1708984 L52.2685547,12.3310547 L51.1171875,11.1708984 Z M47.0214844,9.75585938 L48.3310547,10.0458984 C48.1494141,10.9482422 48.0234375,11.671875 47.953125,12.2167969 C47.8828125,12.7617188 47.8476562,13.2275391 47.8476562,13.6142578 C47.8476562,14.9736328 48.2226562,15.9360352 48.9726562,16.5014648 C49.7226562,17.0668945 50.8125,17.3496094 52.2421875,17.3496094 C55.2949219,17.3496094 56.8212891,16.2451172 56.8212891,14.0361328 C56.8212891,13.5498047 56.7158203,12.9609375 56.5048828,12.2695312 C56.2939453,11.578125 55.9599609,10.6757812 55.5029297,9.5625 L56.7509766,8.95605469 L57.3925781,10.5908203 C57.6503906,11.2353516 57.8964844,11.737793 58.1308594,12.0981445 C58.3652344,12.4584961 58.6494141,12.7104492 58.9833984,12.8540039 C59.3173828,12.9975586 59.7568359,13.0693359 60.3017578,13.0693359 L60.3632812,13.0693359 L60.3632812,14.5019531 L60.3457031,14.5019531 C59.3613281,14.5019531 58.59375,14.1474609 58.0429688,13.4384766 L57.9638672,13.4648438 C58.1513672,15.2167969 57.7353516,16.5395508 56.7158203,17.4331055 C55.6962891,18.3266602 54.2138672,18.7734375 52.2685547,18.7734375 C50.4345703,18.7734375 49.0151367,18.3706055 48.0102539,17.5649414 C47.0053711,16.7592773 46.5029297,15.4658203 46.5029297,13.6845703 C46.5029297,13.1982422 46.5439453,12.6430664 46.6259766,12.019043 C46.7080078,11.3950195 46.8398438,10.640625 47.0214844,9.75585938 Z"
            id="Shape"></path>
        <polygon id="Path"
            points="40.4560547 14.5019531 39.0761719 14.5019531 39.0761719 2.8828125 40.4560547 2.8828125">
        </polygon>
        <path
            d="M34.1191406,9.36914062 L35.4111328,8.91210938 C35.7392578,9.87304688 35.9970703,10.7607422 36.1845703,11.5751953 C36.3720703,12.3896484 36.4658203,13.1191406 36.4658203,13.7636719 C36.4658203,15.0175781 36.0498047,16.0810547 35.2177734,16.9541016 C34.3857422,17.8271484 33.0615234,18.5947266 31.2451172,19.2568359 L30.6474609,17.9560547 C32.2060547,17.3994141 33.3383789,16.8032227 34.0444336,16.1674805 C34.7504883,15.5317383 35.1035156,14.7451172 35.1035156,13.8076172 C35.1035156,13.2685547 35.015625,12.6108398 34.8398438,11.8344727 C34.6640625,11.0581055 34.4238281,10.2363281 34.1191406,9.36914062 Z M33.7412109,5.15917969 L34.8925781,4.0078125 L36.0527344,5.15917969 L34.8925781,6.31933594 L33.7412109,5.15917969 Z"
            id="Shape"></path>
        <path
            d="M18.6328125,13.0693359 C19.1484375,13.0693359 19.5717773,12.9550781 19.902832,12.7265625 C20.2338867,12.4980469 20.5224609,12.1860352 20.7685547,11.7905273 C21.0146484,11.3950195 21.2578125,10.9511719 21.4980469,10.4589844 C21.7617188,9.92578125 22.0283203,9.45410156 22.2978516,9.04394531 C22.5673828,8.63378906 22.8793945,8.31152344 23.2338867,8.07714844 C23.5883789,7.84277344 24.0234375,7.72558594 24.5390625,7.72558594 C25.1425781,7.72558594 25.6728516,7.90722656 26.1298828,8.27050781 C26.5869141,8.63378906 26.9443359,9.10253906 27.2021484,9.67675781 C27.4599609,10.2509766 27.5888672,10.8544922 27.5888672,11.4873047 C27.5888672,12.4306641 27.328125,13.1850586 26.8066406,13.7504883 C26.2851562,14.315918 25.5878906,14.5986328 24.7148438,14.5986328 C24.0585938,14.5986328 23.4609375,14.4404297 22.921875,14.1240234 C22.3828125,13.8076172 21.9023438,13.3740234 21.4804688,12.8232422 C21.1582031,13.3271484 20.7817383,13.7329102 20.3510742,14.0405273 C19.9204102,14.3481445 19.3476562,14.5019531 18.6328125,14.5019531 C18.4628906,14.5019531 18.3779297,14.2617188 18.3779297,13.78125 C18.3779297,13.3066406 18.4628906,13.0693359 18.6328125,13.0693359 Z M22.1748047,11.8037109 C22.5849609,12.2490234 22.9936523,12.5888672 23.4008789,12.8232422 C23.8081055,13.0576172 24.2490234,13.1748047 24.7236328,13.1748047 C25.2275391,13.1748047 25.6274414,13.0180664 25.9233398,12.7045898 C26.2192383,12.3911133 26.3671875,11.9765625 26.3671875,11.4609375 C26.3671875,11.109375 26.2880859,10.7563477 26.1298828,10.4018555 C25.9716797,10.0473633 25.753418,9.75 25.4750977,9.50976562 C25.1967773,9.26953125 24.8789062,9.14941406 24.5214844,9.14941406 C24,9.14941406 23.5942383,9.34570312 23.3041992,9.73828125 C23.0141602,10.1308594 22.7402344,10.6025391 22.4824219,11.1533203 L22.1748047,11.8037109 Z"
            id="Shape"></path>
        <path
            d="M9.38671875,11.1708984 L10.5380859,10.0195312 L11.6982422,11.1708984 L10.5380859,12.3310547 L9.38671875,11.1708984 Z M5.29101562,9.75585938 L6.60058594,10.0458984 C6.41894531,10.9482422 6.29296875,11.671875 6.22265625,12.2167969 C6.15234375,12.7617188 6.1171875,13.2275391 6.1171875,13.6142578 C6.1171875,14.9736328 6.4921875,15.9360352 7.2421875,16.5014648 C7.9921875,17.0668945 9.08203125,17.3496094 10.5117188,17.3496094 C13.5644531,17.3496094 15.0908203,16.2451172 15.0908203,14.0361328 C15.0908203,13.5498047 14.9853516,12.9609375 14.7744141,12.2695312 C14.5634766,11.578125 14.2294922,10.6757812 13.7724609,9.5625 L15.0205078,8.95605469 L15.6621094,10.5908203 C15.9199219,11.2353516 16.1660156,11.737793 16.4003906,12.0981445 C16.6347656,12.4584961 16.9189453,12.7104492 17.2529297,12.8540039 C17.5869141,12.9975586 18.0263672,13.0693359 18.5712891,13.0693359 L18.6328125,13.0693359 L18.6328125,14.5019531 L18.6152344,14.5019531 C17.6308594,14.5019531 16.8632812,14.1474609 16.3125,13.4384766 L16.2333984,13.4648438 C16.4208984,15.2167969 16.0048828,16.5395508 14.9853516,17.4331055 C13.9658203,18.3266602 12.4833984,18.7734375 10.5380859,18.7734375 C8.70410156,18.7734375 7.28466797,18.3706055 6.27978516,17.5649414 C5.27490234,16.7592773 4.77246094,15.4658203 4.77246094,13.6845703 C4.77246094,13.1982422 4.81347656,12.6430664 4.89550781,12.019043 C4.97753906,11.3950195 5.109375,10.640625 5.29101562,9.75585938 Z"
            id="Shape"></path>
        <path
            d="M1.59960938,10.8017578 L0.377929688,10.8017578 L0.254882812,2.32910156 L1.70507812,2.32910156 L1.59960938,10.8017578 Z M0,13.6142578 C0,13.3388672 0.09375,13.1088867 0.28125,12.9243164 C0.46875,12.7397461 0.703125,12.6474609 0.984375,12.6474609 C1.265625,12.6474609 1.50146484,12.7397461 1.69189453,12.9243164 C1.88232422,13.1088867 1.97753906,13.3388672 1.97753906,13.6142578 C1.97753906,13.8837891 1.88232422,14.1152344 1.69189453,14.3085938 C1.50146484,14.5019531 1.265625,14.5986328 0.984375,14.5986328 C0.703125,14.5986328 0.46875,14.5019531 0.28125,14.3085938 C0.09375,14.1152344 0,13.8837891 0,13.6142578 Z"
            id="Shape"></path>
    </g>
</svg>