<?xml version="1.0" encoding="UTF-8"?>
<svg width="17px" height="12px" viewBox="0 0 17 12" version="1.1" xmlns="http://www.w3.org/2000/svg" xmlns:xlink="http://www.w3.org/1999/xlink">
    <!-- Generator: Sketch 51.1 (57501) - http://www.bohemiancoding.com/sketch -->
    <title>Icon</title>
    <desc>Created with Sketch.</desc>
    <defs>
        <rect id="path-1" x="0" y="0" width="17" height="13"></rect>
    </defs>
    <g id="Page-1" stroke="none" stroke-width="1" fill="none" fill-rule="evenodd">
        <g id="Popup" transform="translate(-314.000000, -516.000000)">
            <g id="Normal" transform="translate(86.000000, 50.000000)">
                <g id="Donate" transform="translate(20.000000, 454.000000)">
                    <g id="Icon" transform="translate(208.000000, 11.000000)">
                        <mask id="mask-2" fill="white">
                            <use xlink:href="#path-1"></use>
                        </mask>
                        <g fill-rule="nonzero"></g>
                        <path d="M2.5,1 L13.0339806,1 L13.0339806,6.73300972 C13.0339806,10.1941729 10.2281534,13 6.76699028,13 L6.5,13 C3.1862915,13 0.5,10.3137085 0.5,7 L0.5,3 C0.5,1.8954305 1.3954305,1 2.5,1 Z M6.77398055,9.89352887 L7.19398055,9.43778419 C8.75398055,7.94033738 9.77398055,7.13744681 9.77398055,5.90042553 C9.77398055,4.8912766 9.05398055,4.11 8.12398055,4.11 C7.61398055,4.11 7.10398055,4.37042553 6.77398055,4.79361702 C6.44398055,4.37042553 5.93398055,4.11 5.42398055,4.11 C4.49398055,4.11 3.77398055,4.8912766 3.77398055,5.90042553 C3.77398055,7.13744681 4.79398055,7.94033738 6.35398055,9.43778419 L6.77398055,9.89352887 Z M13.2339806,2.2 L13.2339806,4.8 L14.5339806,4.8 C15.2519507,4.8 15.8339806,4.21797017 15.8339806,3.5 C15.8339806,2.78202983 15.2519507,2.2 14.5339806,2.2 L13.2339806,2.2 Z M12.0339806,1 L14.5339806,1 C15.9146924,1 17.0339806,2.11928813 17.0339806,3.5 C17.0339806,4.88071187 15.9146924,6 14.5339806,6 L12.0339806,6 L12.0339806,1 Z M1,13 L12.5339806,13 C12.8101229,13 13.0339806,13.2238576 13.0339806,13.5 C13.0339806,13.7761424 12.8101229,14 12.5339806,14 L1,14 C0.723857625,14 0.5,13.7761424 0.5,13.5 C0.5,13.2238576 0.723857625,13 1,13 Z" id="Combined-Shape" fill="#FB6021" fill-rule="nonzero" mask="url(#mask-2)"></path>
                    </g>
                </g>
            </g>
        </g>
    </g>
</svg>