<svg xmlns="http://www.w3.org/2000/svg" width="205" height="35" viewBox="0 0 205 35"><g fill="none" fill-rule="evenodd"><path d="M-23-43h250V77H-23z"/><path fill="#999" d="M26.55 14.846a.778.778 0 0 1 0-1.096l5.626-5.681a.764.764 0 0 1 1.088 0L44.63 19.542a2.241 2.241 0 0 1-.017 3.106l-11.668 11.78a.765.765 0 0 1-.543.228H21.139a.767.767 0 0 1-.715-.494.78.78 0 0 1 .198-.853l11.565-11.68a.775.775 0 0 0 0-1.091l-5.638-5.692h.002zm-7.753 5.698a.778.778 0 0 1 0 1.096l-5.625 5.682a.764.764 0 0 1-1.088 0L.715 15.848a2.241 2.241 0 0 1 .019-3.104L12.403.96a.768.768 0 0 1 .543-.227h11.261a.77.77 0 0 1 .716.495.78.78 0 0 1-.199.852L13.16 13.76a.78.78 0 0 0 0 1.093l5.638 5.692v-.002zm39.877.259c1.166 1.072 2.97 1.715 4.703 1.715 1.24 0 2.194-.608 2.194-1.464 0-2.606-8.312-1.68-8.312-7.252 0-3.32 3.184-5.392 6.58-5.392 2.23 0 4.67.86 5.802 1.75l-2.158 3.355c-.885-.64-2.05-1.176-3.292-1.176-1.272 0-2.335.502-2.335 1.396 0 2.245 8.316 1.353 8.316 7.356 0 3.32-3.22 5.356-6.828 5.356-2.372 0-4.885-.823-6.9-2.32l2.23-3.324zm18.748-.786a5.018 5.018 0 0 0 4.14 2.143c2.582 0 4.53-2 4.53-4.714 0-2.5-1.733-4.748-4.423-4.748a5.264 5.264 0 0 0-4.247 2.139v5.18zM72.825 8.77h4.422v1.391c1.343-1.107 3.078-1.75 5.023-1.75 4.672 0 8.421 3.93 8.421 9.036 0 2.358-.814 4.5-2.159 6.072-1.522 1.786-3.96 2.929-6.51 2.929-1.733 0-3.22-.502-4.6-1.573v9.787h-4.597V8.769zm31.565 6.427c-.143-1.536-1.522-3.037-3.397-3.037-1.91 0-3.468 1.466-3.68 3.037h7.077zm4.282 8.142c-1.663 2-4.388 3.109-7.042 3.109-5.13 0-8.987-3.572-8.987-9.003 0-4.82 3.254-9.034 8.35-9.034 4.742 0 8.103 4.038 8.103 8.859 0 .462-.036.928-.107 1.32H97.103c.246 2.43 2.19 4.106 4.633 4.106 1.946 0 3.502-1.104 4.318-1.997l2.618 2.64zm3.079 2.751V8.77h4.423v1.391a7.51 7.51 0 0 1 4.848-1.75 7.704 7.704 0 0 1 5.944 2.786c1.13 1.355 1.767 3.105 1.767 6.073v8.82h-4.597v-9.178c0-1.715-.389-2.609-1.029-3.251-.6-.607-1.52-.962-2.58-.962-1.947 0-3.54 1.247-4.177 2.139V26.09h-4.6zm32.733-11.252a5.261 5.261 0 0 0-4.246-2.139c-2.69 0-4.422 2.247-4.422 4.746 0 2.714 1.944 4.716 4.527 4.716a5.013 5.013 0 0 0 4.14-2.143v-5.18zm.175 11.252v-1.392c-1.416 1.215-3.04 1.75-4.776 1.75-2.547 0-4.953-1.145-6.473-2.929a9.349 9.349 0 0 1-2.195-6.074c0-5.105 3.75-9.034 8.421-9.034 1.875 0 3.501.537 4.846 1.606V.73h4.6v25.358h-4.423zm18.918-10.893c-.141-1.536-1.522-3.037-3.397-3.037-1.91 0-3.468 1.466-3.68 3.037h7.077zm4.28 8.142c-1.663 2-4.387 3.109-7.04 3.109-5.13 0-8.987-3.572-8.987-9.003 0-4.82 3.254-9.034 8.35-9.034 4.74 0 8.102 4.038 8.102 8.859 0 .462-.034.928-.104 1.32H156.29c.245 2.43 2.191 4.106 4.633 4.106 1.946 0 3.504-1.104 4.318-1.997l2.615 2.64zm4.738-2.535c1.166 1.072 2.971 1.715 4.706 1.715 1.238 0 2.193-.608 2.193-1.464 0-2.606-8.316-1.68-8.316-7.252 0-3.32 3.184-5.392 6.581-5.392 2.23 0 4.672.86 5.803 1.75l-2.157 3.355c-.884-.64-2.052-1.176-3.292-1.176-1.273 0-2.336.502-2.336 1.396 0 2.245 8.316 1.353 8.316 7.356 0 3.32-3.22 5.356-6.828 5.356-2.371 0-4.883-.823-6.899-2.32l2.229-3.324zm22.39-4.25l9.449 9.536h-6.193l-7.253-7.5v7.5h-4.6V.731h4.6v13.643l5.908-5.605h6.477l-8.387 7.785z"/></g></svg>