<?xml version="1.0" encoding="UTF-8"?>
<svg width="513px" height="145px" viewBox="0 0 513 145" version="1.1" xmlns="http://www.w3.org/2000/svg" xmlns:xlink="http://www.w3.org/1999/xlink">
    <!-- Generator: Sketch 50.2 (55047) - http://www.bohemiancoding.com/sketch -->
    <title>logo-7</title>
    <desc>Created with Sketch.</desc>
    <defs></defs>
    <g id="Page-1" stroke="none" stroke-width="1" fill="none" fill-rule="evenodd">
        <g id="logo-7" fill="#FFFFFF" fill-rule="nonzero">
            <path d="M299,31.7 C309,31.7 315.5,24.6 315.5,15.9 C315.5,7.1 308.6,0 299,0 C289.3,0 282.5,7.1 282.5,15.8 C282.5,24.6 289.2,31.7 299,31.7 Z" id="Shape"></path>
            <path d="M469.8,47.7 C445.6,47.7 428.5,66.3 428.5,94.9 C428.5,102 429.2,108.4 430.7,114.2 C426.8,117.4 423.2,119.6 419.8,119.6 C414.6,119.6 412.2,116.5 412.2,109.8 L412.2,79.4 C412.2,60.4 400.7,47.8 382.9,47.8 C370.6,47.8 361.6,52.6 355,59.5 C354.5,58.7 353.9,57.5 353.2,56.3 C351.3,52.9 348.8,50.4 343.8,50.4 C342.9,50.4 341.7,50.4 340,50.4 C335.8,50.4 333.4,53.3 333.4,58.3 L333.4,112.6 C328.9,116.6 323.8,119.7 319.6,119.7 C314.4,119.7 312,116.5 312,109.9 L312,58.3 C312,53.1 310,50.4 305.2,50.4 C300.4,50.4 295.7,50.4 291.9,50.4 C287.7,50.4 285.3,53.3 285.3,58.3 L285.3,114.1 C280.8,117.6 277.1,119.7 273.4,119.7 C268.2,119.7 265.8,116.6 265.8,109.9 L265.8,79.4 C265.8,60.4 255.6,47.8 237.8,47.8 C225.5,47.8 216.1,53.3 209.5,60.3 C204.7,52.8 197,47.9 186,47.9 C175,47.9 167.5,52 159.5,59.4 C156.1,52.3 151.5,50.5 146.1,50.5 C136.5,50.5 115.3,56.4 99.3,63.2 C92.1,44.7 81.2,19.6 77.7,11.7 C77.2,10.2 76,7.9 75,6.5 C72.4,2.8 68.8,0.8 63.6,0.8 C59,0.8 55.7,2.7 53.2,5.6 C51.9,7.1 50.4,9.6 49.6,11.5 C45.1,22.4 16.3,95.9 2.2,132.2 C2.66453526e-14,137.9 0.4,141.6 5.9,141.6 C11.9,141.6 17.4,141.6 20.5,141.6 C24.8,141.6 26.4,139.7 30.7,135.2 C46.4,118.5 65.4,105.4 82.9,96.4 C90,113.7 97.1,131.6 98.6,135.2 C100.7,140.4 103.4,141.6 108.2,141.6 C112.1,141.6 114.8,141.6 122.4,141.6 C127.9,141.6 128.8,137.9 127,133.1 C123.8,124.6 116.1,105.7 107.9,85.3 C117.4,80.8 129,77.3 132.7,77.3 C136.7,77.3 138.2,80.1 138.2,84.4 C138.2,88.7 138.2,129.3 138.2,133.6 C138.2,138.8 140.2,141.5 145,141.5 C149.8,141.5 154.5,141.5 158.3,141.5 C162.5,141.5 164.9,138.6 164.9,133.6 C164.9,126.4 164.9,94.4 164.9,88 C164.9,79.4 168.8,73.1 177.1,73.1 C185.4,73.1 188.6,79.5 188.6,88 L188.6,133.6 C188.6,138.8 190.6,141.5 195.4,141.5 C200.2,141.5 204.9,141.5 208.7,141.5 C212.9,141.5 215.3,138.6 215.3,133.6 C215.3,126.4 215.3,94.4 215.3,88 C215.3,79.4 219.2,73.1 227.5,73.1 C235.8,73.1 239,79.5 239,88 C239,98.7 239,107 239,117.8 C239,134 247.9,144.1 262.2,144.1 C273.9,144.1 281.9,140 289.4,134.2 C293.3,140.5 300,144.1 308.5,144.1 C318.6,144.1 326.9,139 333.5,134.1 C333.6,138.9 335.7,141.5 340.3,141.5 C345.1,141.5 349.8,141.5 353.6,141.5 C357.8,141.5 360.2,138.6 360.2,133.6 C360.2,126.4 360.2,94.4 360.2,88 C360.2,79.4 364.9,73.1 373.1,73.1 C381.3,73.1 385.4,79.5 385.4,88 C385.4,98.7 385.4,107 385.4,117.8 C385.4,134 394.3,144.1 408.6,144.1 C420.7,144.1 431.9,138.5 439.7,132.1 C446.5,139.8 456.4,144.1 469.7,144.1 C498.6,144.1 512.4,124.9 512.4,94.9 C512.5,66.3 496.1,47.7 469.8,47.7 Z M44.3,94.3 C47.4,86.7 53.9,69.4 58.2,58.4 C59.7,54.5 60.9,52.4 63.6,52.4 C66.4,52.4 67.7,55.7 68.9,58.5 C70.8,63 72.8,69 74.6,73.9 C64.3,79.2 53.3,86.9 44.3,94.3 Z M470.5,119.5 C460.4,119.5 455.9,109.8 455.9,95 C455.9,81.6 461.4,72.4 470.5,72.4 C480,72.4 485.1,81.6 485.1,95 C485.1,109.8 481.3,119.5 470.5,119.5 Z" id="Shape"></path>
        </g>
    </g>
</svg>