<?xml version="1.0" encoding="utf-8"?>
<!-- Generator: Adobe Illustrator 22.0.0, SVG Export Plug-In . SVG Version: 6.00 Build 0)  -->
<svg version="1.1" id="Livello_1" xmlns="http://www.w3.org/2000/svg" xmlns:xlink="http://www.w3.org/1999/xlink" x="0px" y="0px"
	 viewBox="0 0 390 90" style="enable-background:new 0 0 390 90;" xml:space="preserve">
<style type="text/css">
	.st0{fill:#9E9FA1;}
</style>
<g>
	<path class="st0" d="M49.8,26.2c-12.7,0-22.5,9.3-22.5,22.9c0,13.5,10.3,22.9,22.5,22.9c9.3,0,16.1-4.7,20.1-11.2l-8.2-3.7
		c-1.5,3.7-5.5,6.5-11.4,6.5C41.9,63.6,37,58,37,51.5h33.3l1-2.8C71.4,35,61.6,26.2,49.8,26.2z M37.5,43.2c1.5-4.9,5.4-8.6,12.3-8.6
		c5.9,0,10.8,3.8,11.3,8.6H37.5z M388.4,46.8h-17v7.9h8c-0.4,5.8-5.7,9-11.6,9c-9.7,0-13.9-7.1-13.9-14.3c0-7.3,4.2-14.7,14-14.7
		c5.5,0,9.6,2.9,11.7,6.8l8-4c-4-7.3-10.8-11.2-19.7-11.3c-13.8,0.1-23.7,9.9-23.7,23.2c0,13.9,10.8,22.7,22.8,22.7
		c12.1,0,22.3-8.9,22.3-22.5L388.4,46.8z M10.4,32.2l-0.5-0.4l-1-4.7H0.1v44h9.8V45.4c0.2-5.4,3.9-9.9,11.5-9.9h5.2v-8.4
		c-2-0.9-2.9-0.9-4.9-0.9C17.6,26.2,13.9,28,10.4,32.2z"/>
	<polygon class="st0" points="198.3,57.4 186.6,27.1 176.6,27.1 193.5,69.7 185.7,89.8 194.9,89.8 219.3,27.1 210.1,27.1 	"/>
	<path class="st0" d="M163.8,30.9l-0.4,0.4l-0.5-0.4c-2.9-2.8-7.9-4.7-12.7-4.7c-12.7,0-23.5,9.3-23.5,22.9
		c0,13.5,10.8,22.9,23.5,22.9c4.9,0,9.8-1.9,12.7-4.7l0.5-0.4l0.4,0.4l1,3.8h8.8V0h-9.8V30.9z M150.6,63.6
		c-9.3,0-14.3-6.5-14.3-14.5s5-14.6,14.3-14.6c8.3,0,14.2,6.6,14.2,14.6S158.9,63.6,150.6,63.6z M111.6,30.9l-0.4,0.4l-0.4-0.4
		c-3-2.8-7.9-4.7-12.7-4.7c-12.7,0-23.5,9.3-23.5,22.9c0,13.5,10.8,22.9,23.5,22.9c4.9,0,9.8-1.9,12.7-4.7l0.4-0.4l0.4,0.4l1,3.8
		h8.8v-44h-8.8L111.6,30.9z M98.4,63.6c-9.3,0-14.3-6.5-14.3-14.5s5-14.6,14.3-14.6c8.3,0,14.2,6.6,14.2,14.6S106.7,63.6,98.4,63.6z
		 M272.4,26.2c-3.9,0-8.8,1.9-11.2,4.7l-2.4,2.8c-2.6-4.6-7.7-7.5-14.7-7.5c-3.9,0-8.8,1.9-10.8,4.7l-0.4,0.4l-0.5-0.4l-1-3.8h-8.8
		v44h9.8V44.5c0.2-5.4,5-9.9,10.8-9.9c4.9,0,7.9,2.8,7.9,8.4v28.1h9.8V44.5c0.2-5.4,5-9.9,10.8-9.9c4.9,0,7.9,2.8,7.9,8.4v28.1h9.8
		v-29C289,32.7,283.2,26.2,272.4,26.2z M330.5,30.9l-0.4,0.4l-0.5-0.4c-2.9-2.8-7.8-4.7-12.7-4.7c-12.7,0-23.5,9.3-23.5,22.9
		c0,13.5,10.8,22.9,23.5,22.9c4.9,0,9.8-1.9,12.7-4.7l0.5-0.4l0.4,0.4l1,3.8h8.8v-44h-8.8L330.5,30.9z M317.3,63.6
		c-9.3,0-14.3-6.5-14.3-14.5s5-14.6,14.3-14.6c8.3,0,14.2,6.6,14.2,14.6S325.6,63.6,317.3,63.6z"/>
</g>
</svg>
