<svg width="128" height="128" viewBox="0 0 128 128" fill="none" xmlns="http://www.w3.org/2000/svg">
<g clip-path="url(#clip0_80_2328)">
<path fill-rule="evenodd" clip-rule="evenodd" d="M56.6118 36.2537H43.8367C41.2865 36.2537 38.8407 37.2665 37.0371 39.0694C35.2336 40.8724 34.2199 43.3178 34.2189 45.8679V86.2662C34.2189 88.817 35.2322 91.2633 37.0359 93.067C38.8396 94.8706 41.2859 95.8839 43.8367 95.8839H84.2385C86.7893 95.8839 89.2356 94.8706 91.0393 93.067C92.8429 91.2633 93.8562 88.817 93.8562 86.2662V69.3559L99.6269 65.3986V86.2697C99.626 90.3507 98.0044 94.2643 95.1187 97.1499C92.233 100.036 88.3194 101.657 84.2385 101.658H43.8367C39.7557 101.657 35.8421 100.036 32.9565 97.1499C30.0708 94.2643 28.4492 90.3507 28.4482 86.2697V45.8715C28.4478 43.8504 28.8455 41.8489 29.6186 39.9815C30.3917 38.1141 31.5252 36.4172 32.9542 34.9879C34.3832 33.5586 36.0797 32.4248 37.947 31.6512C39.8142 30.8776 41.8155 30.4795 43.8367 30.4795H59.9967L56.6118 36.2537Z" fill="black"/>
<path fill-rule="evenodd" clip-rule="evenodd" d="M84.6953 21.333C85.2109 21.333 85.6482 21.7028 85.7585 22.2077C86.7682 26.9021 89.1143 31.2042 92.514 34.5952C95.9056 37.9968 100.209 40.3442 104.905 41.3543C105.41 41.4646 105.78 41.9019 105.78 42.421C105.777 42.6709 105.688 42.9123 105.529 43.105C105.37 43.2978 105.15 43.4303 104.905 43.4806C100.21 44.4913 95.9082 46.8387 92.5176 50.2397C89.0716 53.6747 86.7081 58.0445 85.7193 62.8086C85.6713 63.0455 85.5434 63.2588 85.3571 63.4129C85.1707 63.5669 84.9371 63.6523 84.6953 63.6548C84.4536 63.6523 84.22 63.5669 84.0336 63.4129C83.8472 63.2588 83.7194 63.0455 83.6713 62.8086C82.6825 58.0445 80.319 53.6747 76.8731 50.2397C73.4381 46.7938 69.0683 44.4302 64.3042 43.4415C64.0673 43.3934 63.854 43.2656 63.6999 43.0792C63.5459 42.8928 63.4605 42.6592 63.458 42.4175C63.458 41.9197 63.8136 41.493 64.3042 41.3935C69.0683 40.4047 73.4381 38.0412 76.8731 34.5952C80.2739 31.2045 82.6213 26.9024 83.6322 22.2077C83.6827 21.9623 83.8157 21.7416 84.0092 21.5824C84.2026 21.4232 84.4448 21.3352 84.6953 21.333Z" fill="black"/>
</g>
<defs>
<clipPath id="clip0_80_2328">
<rect width="85.3333" height="85.3333" fill="white" transform="translate(21.333 21.333)"/>
</clipPath>
</defs>
</svg>
