<svg width="128" height="128" viewBox="0 0 128 128" fill="none" xmlns="http://www.w3.org/2000/svg">
<path d="M49.1428 58.982C46.0407 58.982 43.5281 61.5169 43.5281 64.6465V99.9884H47.1037V64.6465C47.1037 63.5058 48.0218 62.5796 49.1525 62.5796C50.2831 62.5796 51.2011 63.5058 51.2011 64.6465V99.9884H54.7767V64.6465C54.7767 61.5169 52.2642 58.982 49.1621 58.982H49.1428Z" fill="black"/>
<path d="M78.8499 58.982C75.7478 58.982 73.2353 61.5169 73.2353 64.6465V99.9884H76.8109V64.6465C76.8109 63.5058 77.729 62.5796 78.8596 62.5796C79.9902 62.5796 80.9083 63.5058 80.9083 64.6465V99.9884H84.4839V64.6465C84.4839 61.5169 81.9714 58.982 78.8693 58.982H78.8499Z" fill="black"/>
<path d="M64.0014 58.982C60.8993 58.982 58.3867 61.5169 58.3867 64.6465V99.9884H61.9624V64.6465C61.9624 63.5058 62.8804 62.5796 64.0111 62.5796C65.1417 62.5796 66.0597 63.5058 66.0597 64.6465V99.9884H69.6353V64.6465C69.6353 61.5169 67.1228 58.982 64.0207 58.982H64.0014Z" fill="black"/>
<path d="M98.8183 44.2914L101.293 39.9529H107.042L112 28H16L20.9575 39.9529H26.7075L29.1717 44.2914C24.3688 45.9488 20.4163 50.1606 20.4163 56.5076C20.4163 62.8545 24.9583 68.2264 31.7616 68.2264C33.2499 68.2264 34.6317 67.9144 35.8591 67.3685V100H39.425V64.4924C40.546 62.9616 41.2031 61.0508 41.2515 58.8864C41.2515 58.8572 41.2611 58.8182 41.2611 58.7791C41.2611 58.7499 41.2515 58.7304 41.2515 58.7011C41.2515 58.6816 41.2611 58.6622 41.2611 58.6427C41.2611 58.6134 41.2515 58.5842 41.2515 58.5452C41.2128 57.0827 40.8262 55.7178 40.1497 54.5576H87.8502C87.1737 55.7178 86.7872 57.0827 86.7485 58.5452C86.7485 58.5842 86.7388 58.6134 86.7388 58.6427V58.7791C86.7388 58.7791 86.7485 58.8572 86.7485 58.8864C86.7968 61.0508 87.4539 62.9616 88.575 64.4924V100H92.1408V67.3685C93.3682 67.9144 94.7404 68.2264 96.2384 68.2264C103.032 68.2264 107.584 62.6205 107.584 56.5076C107.584 50.3946 103.622 45.9488 98.8183 44.2914ZM23.3348 36.3456L21.3634 31.6073H106.637L104.665 36.3456H23.3348ZM97.1759 39.9529L95.1944 43.4335H32.8053L30.8242 39.9529H97.1759ZM96.2384 64.6191C92.7497 64.6191 90.3531 62.2402 90.3144 58.7401C90.3337 56.2638 91.9186 54.6064 94.2185 54.5771H94.2862C95.7259 54.5771 96.9054 55.7763 96.9054 57.034V57.0925C96.8763 57.8237 96.2959 58.3892 95.5713 58.3892C94.5858 58.3892 93.7837 59.1983 93.7837 60.1928C93.7837 61.1873 94.5858 61.9965 95.5713 61.9965C98.2774 61.9965 100.491 59.7834 100.491 57.034C100.491 56.9463 100.471 56.8585 100.461 56.7805C100.316 53.5534 97.6979 50.9796 94.2379 50.9796H63.9903L63.7583 50.9698L33.762 50.9796C30.3024 50.9796 27.6835 53.5534 27.5385 56.7805C27.5288 56.8585 27.5095 56.9463 27.5095 57.034C27.5095 59.7834 29.7225 61.9965 32.4284 61.9965C33.4141 61.9965 34.2162 61.1873 34.2162 60.1928C34.2162 59.1983 33.4141 58.3892 32.4284 58.3892C31.7037 58.3892 31.1238 57.8237 31.0852 57.0925C31.0852 57.073 31.0948 57.0535 31.0948 57.034C31.0948 55.7763 32.2641 54.5771 33.7137 54.5771H33.7717C36.0814 54.6064 37.6662 56.2638 37.6855 58.7401C37.6469 62.2402 35.2406 64.6191 31.7616 64.6191C27.181 64.6191 23.9919 60.885 23.9919 56.5076C23.9919 50.5993 28.5822 47.031 34.2549 47.031H93.7451C99.4175 47.031 104.008 50.5993 104.008 56.5076C104.008 60.885 100.819 64.6191 96.2384 64.6191Z" fill="black"/>
</svg>
