<svg width="128" height="128" viewBox="0 0 128 128" fill="none" xmlns="http://www.w3.org/2000/svg">
<path d="M38.8417 77.6588L55.1316 68.518L55.4042 67.7213L55.1316 67.281H54.335L51.6094 67.1133L42.301 66.8617L34.2293 66.5263L26.4095 66.107L24.4387 65.6877L22.5938 63.2557L22.7824 62.0398L24.4387 60.9286L26.8078 61.1383L32.0491 61.4947L39.911 62.0398L45.6135 62.3752L54.0623 63.2557H55.4042L55.5928 62.7106L55.1316 62.3752L54.7751 62.0398L46.6407 56.5259L37.8353 50.6977L33.2231 47.3432L30.7283 45.6451L29.4704 44.0517L28.9252 40.5715L31.1894 38.0767L34.2293 38.2863L35.005 38.496L38.087 40.865L44.67 45.9595L53.2656 52.291L54.5236 53.3393L55.0267 52.9828L55.0897 52.7313L54.5236 51.7878L49.8483 43.3389L44.8586 34.7432L42.6364 31.1792L42.0493 29.0407C41.8397 28.1602 41.6929 27.4264 41.6929 26.5249L44.2717 23.0237L45.6972 22.5625L49.1355 23.0237L50.5822 24.2816L52.7205 29.1665L56.1798 36.8607L61.5469 47.3223L63.1192 50.4251L63.9578 53.2973L64.2724 54.1779H64.8175V53.6747L65.2578 47.7835L66.0754 40.5505L66.8721 31.242L67.1446 28.6214L68.4445 25.4766L71.0232 23.7785L73.0358 24.7429L74.6921 27.1119L74.4613 28.6424L73.4761 35.0367L71.5472 45.058L70.2894 51.7669H71.0232L71.8618 50.9283L75.258 46.4208L80.9605 39.2926L83.4763 36.4624L86.4115 33.3386L88.2984 31.85H91.8624L94.4831 35.7495L93.3091 39.7748L89.6402 44.4291L86.6002 48.3705L82.2394 54.2408L79.514 58.9369L79.7655 59.3143L80.4155 59.2514L90.2691 57.1549L95.5942 56.1905L101.946 55.1003L104.819 56.4421L105.133 57.8048L104.001 60.5932L97.2085 62.2704L89.2418 63.8637L77.3755 66.673L77.2288 66.7779L77.3965 66.9875L82.7426 67.4907L85.0277 67.6165H90.6255L101.045 68.3922L103.77 70.1952L105.406 72.3965L105.133 74.0737L100.94 76.2122L95.2798 74.8704L82.0718 71.7256L77.5433 70.5935H76.9144V70.9709L80.688 74.6607L87.6065 80.9083L96.2651 88.9589L96.7054 90.9506L95.5942 92.523L94.4202 92.3553L86.8099 86.6318L83.8747 84.0531L77.2288 78.4554H76.7886V79.0425L78.319 81.2857L86.4115 93.4455L86.8307 97.1773L86.2438 98.3932L84.1473 99.127L81.8411 98.7077L77.103 92.0618L72.2182 84.5772L68.2766 77.8684L67.7944 78.141L65.4674 103.194L64.3772 104.473L61.8614 105.438L59.7648 103.844L58.6537 101.265L59.7648 96.1709L61.1067 89.525L62.1969 84.2418L63.1822 77.6797L63.7691 75.4994L63.7272 75.3526L63.245 75.4155L58.2973 82.2082L50.7708 92.3763L44.8168 98.7496L43.3911 99.3157L40.9172 98.0368L41.1478 95.7516L42.5315 93.718L50.7708 83.2355L55.7395 76.7363L58.9473 72.9835L58.9262 72.4384H58.7375L36.85 86.6528L32.9505 87.1559L31.2733 85.5836L31.483 83.0049L32.2796 82.1663L38.8626 77.6378L38.8417 77.6588Z" fill="#D97757"/>
</svg>
