<svg width="128" height="128" viewBox="0 0 128 128" fill="none" xmlns="http://www.w3.org/2000/svg">
<path d="M110.618 34.6384C109.621 34.1405 109.192 35.0893 108.61 35.5709C108.41 35.7262 108.241 35.9281 108.073 36.1144C106.616 37.7001 104.914 38.7417 102.691 38.6173C99.4405 38.431 96.6645 39.4724 94.2113 42.0061C93.6899 38.8816 91.9574 37.0154 89.3201 35.8191C87.9401 35.1974 86.5449 34.5752 85.5786 33.2228C84.904 32.2593 84.7199 31.1865 84.3826 30.1293C84.1681 29.4924 83.9529 28.8391 83.2323 28.73C82.4503 28.6056 82.1432 29.2738 81.837 29.8341C80.6102 32.1194 80.1349 34.6376 80.1812 37.1868C80.2888 42.9236 82.6653 47.4933 87.3883 50.7429C87.9249 51.1161 88.0626 51.489 87.8945 52.0331C87.5724 53.1526 87.189 54.2405 86.8517 55.3601C86.637 56.0752 86.3144 56.2306 85.5634 55.9199C82.9722 54.8165 80.733 53.1836 78.7548 51.2097C75.3966 47.8982 72.3608 44.245 68.5732 41.3843C67.6966 40.7237 66.7964 40.0963 65.8744 39.5034C62.0102 35.6793 66.3805 32.5386 67.3924 32.1659C68.4503 31.777 67.7606 30.4403 64.3406 30.4558C60.9212 30.4713 57.7929 31.6371 53.8065 33.1918C53.2236 33.4254 52.6105 33.5962 51.9815 33.7356C48.3628 33.0359 44.606 32.8806 40.6804 33.3312C33.2892 34.1702 27.3861 37.7306 23.0467 43.8091C17.8334 51.1168 16.6064 59.4177 18.1092 68.0769C19.6885 77.2019 24.2579 84.7574 31.2809 90.6651C38.5645 96.7893 46.9523 99.79 56.5202 99.2148C62.3316 98.8731 68.8028 98.0805 76.1016 91.7839C77.9418 92.7164 79.8736 93.0898 83.0786 93.3696C85.5474 93.6031 87.9241 93.2452 89.7643 92.857C92.6472 92.2353 92.4479 89.5145 91.4049 89.0174C82.9565 85.007 84.8111 86.6391 83.1246 85.3177C86.8608 80.813 92.2463 76.155 95.2484 63.5371C95.9683 60.5115 96.4191 57.1311 96.4191 53.962C96.4191 53.3272 96.5569 53.014 97.3239 52.9361C99.4398 52.687 101.494 52.097 103.381 51.0394C108.855 47.9924 111.063 42.9868 111.584 36.9862C111.661 36.0692 111.569 35.12 110.618 34.6384ZM62.915 88.6432C54.7264 82.0836 50.7552 79.9221 49.1146 80.0156C47.5813 80.109 47.8571 81.8968 48.1944 83.0625C48.5469 84.2131 49.0075 85.0057 49.6511 86.0161C50.0958 86.6848 50.4027 87.6792 49.2067 88.4261C46.5695 90.089 41.9844 87.8663 41.7695 87.7572C36.4334 84.5548 31.9712 80.3265 28.8275 74.5438C25.7916 68.9779 24.0279 63.009 23.737 56.635C23.6603 55.0963 24.1052 54.5515 25.6075 54.2722C27.5854 53.8988 29.6248 53.8208 31.603 54.1161C39.9597 55.3601 47.0744 59.1687 53.0395 65.2002C56.4437 68.6354 59.0197 72.74 61.673 76.7505C64.4943 81.01 67.5304 85.0676 71.3945 88.3944C72.7594 89.5602 73.8477 90.4465 74.8907 91.0997C71.747 91.4569 66.5026 91.5348 62.915 88.6432ZM66.8755 62.6163C67.0053 62.0804 67.4786 61.6876 68.0518 61.6876C68.1931 61.688 68.3333 61.7142 68.4655 61.7651C68.6344 61.8275 68.7876 61.9209 68.9104 62.0603C69.1249 62.2784 69.2477 62.5891 69.2477 62.9154C69.2477 63.5996 68.7112 64.1434 68.0366 64.1434C67.7518 64.146 67.4757 64.0439 67.2589 63.8558C67.0421 63.6677 66.8991 63.4061 66.8563 63.1192C66.8298 62.952 66.8363 62.781 66.8755 62.6163ZM78.6353 69.4493C77.9861 69.7022 77.3399 69.9007 76.7154 69.9266C75.5498 69.9885 74.2774 69.5067 73.5876 68.9159C72.5145 67.9989 71.7478 67.4864 71.4257 65.8844C71.2877 65.2002 71.3641 64.1434 71.4869 63.5371C71.763 62.2312 71.4561 61.3916 70.5518 60.63C69.8159 60.0083 68.8801 59.8374 67.853 59.8374C67.4696 59.8374 67.1171 59.6665 66.8563 59.5267C66.4269 59.3093 66.0744 58.765 66.4117 58.0963C66.5193 57.879 67.0407 57.3502 67.1635 57.2573C68.5585 56.4487 70.1689 56.713 71.6558 57.3192C73.0359 57.8945 74.0789 58.9514 75.5815 60.4437C77.1147 62.2467 77.3907 62.7445 78.2651 64.0969C78.9554 65.1538 79.5839 66.2424 80.0133 67.4856C80.2318 68.1358 80.031 68.689 79.4302 69.0792C79.1858 69.2378 78.9048 69.3442 78.6353 69.4493Z" fill="#4D6BFE"/>
</svg>
