<svg width="512" height="512" viewBox="0 0 512 512" fill="none" xmlns="http://www.w3.org/2000/svg">
<g clip-path="url(#clip0_121_76)">
<rect width="512" height="512" rx="64" fill="url(#paint0_linear_121_76)"/>
<ellipse cx="256.5" cy="-26.5" rx="511.5" ry="241.5" fill="url(#paint1_linear_121_76)"/>
<g filter="url(#filter0_i_121_76)">
<path fill-rule="evenodd" clip-rule="evenodd" d="M243.868 66.5799C173.928 73.2164 130.327 132.885 135.4 215.019C138.745 269.182 160.585 307.231 199.035 325.88C229.324 340.571 272.755 341.896 298.714 328.923C317.174 319.697 332.368 304.594 341.612 286.282C342.491 284.54 343.438 283.115 343.715 283.115C344.381 283.115 344.377 316.579 343.71 329.195C341.173 377.191 324.125 404.823 290.828 414.909C273.357 420.202 248.672 420.728 229.276 416.221C202.945 410.103 184.981 394.084 179.494 371.829L178.076 366.078L161.49 366.069L144.905 366.059L145.242 369.688C149.691 417.558 196.678 448.338 262.975 446.811C328.066 445.311 364.136 415.941 374.408 356.075C377.32 339.106 377.158 347.408 377.351 204.907L377.53 73.7074H360.875H344.22V96.7474C344.22 110.485 344.029 119.787 343.747 119.787C343.487 119.787 342.107 117.57 340.681 114.861C337.173 108.198 333.167 102.736 327.166 96.4372C305.151 73.3291 277.435 63.3947 243.868 66.5799ZM270.082 94.4398C308.008 99.4503 334.825 130.847 342.135 178.795C350.631 234.529 330.731 283.596 291.931 302.58C276.286 310.235 255.916 312.286 236.758 308.135C184.848 296.888 157.292 236.822 172.242 167.505C181.071 126.573 210.796 97.2343 246.684 94.0302C252.288 93.53 264.861 93.7502 270.082 94.4398Z" fill="#66390C"/>
<path fill-rule="evenodd" clip-rule="evenodd" d="M243.868 66.5799C173.928 73.2164 130.327 132.885 135.4 215.019C138.745 269.182 160.585 307.231 199.035 325.88C229.324 340.571 272.755 341.896 298.714 328.923C317.174 319.697 332.368 304.594 341.612 286.282C342.491 284.54 343.438 283.115 343.715 283.115C344.381 283.115 344.377 316.579 343.71 329.195C341.173 377.191 324.125 404.823 290.828 414.909C273.357 420.202 248.672 420.728 229.276 416.221C202.945 410.103 184.981 394.084 179.494 371.829L178.076 366.078L161.49 366.069L144.905 366.059L145.242 369.688C149.691 417.558 196.678 448.338 262.975 446.811C328.066 445.311 364.136 415.941 374.408 356.075C377.32 339.106 377.158 347.408 377.351 204.907L377.53 73.7074H360.875H344.22V96.7474C344.22 110.485 344.029 119.787 343.747 119.787C343.487 119.787 342.107 117.57 340.681 114.861C337.173 108.198 333.167 102.736 327.166 96.4372C305.151 73.3291 277.435 63.3947 243.868 66.5799ZM270.082 94.4398C308.008 99.4503 334.825 130.847 342.135 178.795C350.631 234.529 330.731 283.596 291.931 302.58C276.286 310.235 255.916 312.286 236.758 308.135C184.848 296.888 157.292 236.822 172.242 167.505C181.071 126.573 210.796 97.2343 246.684 94.0302C252.288 93.53 264.861 93.7502 270.082 94.4398Z" fill="url(#paint2_radial_121_76)"/>
</g>
<g filter="url(#filter1_i_121_76)">
<path fill-rule="evenodd" clip-rule="evenodd" d="M343.915 284.319C344.371 290.413 344.301 318.005 343.71 329.195C341.173 377.191 324.125 404.823 290.828 414.909C273.357 420.202 248.672 420.728 229.276 416.221C202.945 410.103 184.981 394.084 179.494 371.829L178.076 366.078L144.905 366.059L145.242 369.688C149.691 417.558 196.678 448.338 262.975 446.811C328.066 445.311 364.136 415.941 374.408 356.075C374.832 353.601 375.192 351.664 375.496 349.718C377.28 338.32 377.186 326.629 377.351 204.907L377.53 73.7074H344.22V96.7474C344.22 107.432 344.104 115.433 343.921 118.462C343.913 118.582 343.906 118.695 343.898 118.8C343.852 119.447 343.801 119.787 343.747 119.787C343.655 119.787 343.423 119.51 343.098 119.032C343.036 118.939 342.97 118.839 342.901 118.733C342.314 117.829 341.505 116.427 340.681 114.861C337.173 108.198 333.167 102.736 327.166 96.4372C305.151 73.3291 277.435 63.3947 243.868 66.5799C173.928 73.2164 130.327 132.885 135.4 215.019C138.745 269.182 160.585 307.231 199.035 325.88C229.324 340.571 272.755 341.896 298.714 328.923C317.174 319.697 332.368 304.594 341.612 286.282C342.052 285.411 342.508 284.62 342.889 284.046C342.938 283.972 342.986 283.902 343.032 283.836C343.346 283.386 343.594 283.115 343.715 283.115C343.783 283.115 343.844 283.462 343.897 284.097C343.903 284.168 343.909 284.242 343.915 284.319ZM345.22 74.7074V96.7474C345.22 103.62 345.172 109.387 345.089 113.44C345.047 115.464 344.997 117.069 344.939 118.172C344.91 118.72 344.878 119.162 344.842 119.475C344.825 119.625 344.803 119.779 344.772 119.909C344.759 119.966 344.731 120.076 344.676 120.192C344.649 120.247 344.59 120.361 344.481 120.474C344.371 120.589 344.123 120.787 343.747 120.787C343.418 120.787 343.187 120.632 343.122 120.588C343.024 120.521 342.944 120.446 342.89 120.391C342.777 120.278 342.665 120.139 342.56 120C342.346 119.715 342.087 119.325 341.803 118.869C341.231 117.95 340.517 116.697 339.796 115.327C336.337 108.757 332.389 103.369 326.442 97.1269C304.652 74.255 277.244 64.4173 243.962 67.5754C209.272 70.8671 181.149 87.2994 162.312 113.078C143.466 138.869 133.873 174.077 136.398 214.958C139.727 268.873 161.437 306.533 199.471 324.98C214.468 332.254 232.756 336.233 250.528 336.776C268.309 337.318 285.48 334.419 298.267 328.028C316.536 318.898 331.573 303.95 340.72 285.831C341.173 284.934 341.648 284.107 342.056 283.492C342.258 283.189 342.458 282.914 342.642 282.705C342.732 282.602 342.842 282.489 342.965 282.392C343.04 282.334 343.319 282.115 343.715 282.115C344.283 282.115 344.553 282.544 344.594 282.61C344.673 282.736 344.713 282.858 344.732 282.919C344.774 283.057 344.801 283.212 344.821 283.349C344.864 283.638 344.9 284.036 344.931 284.512C344.995 285.473 345.047 286.846 345.088 288.516C345.172 291.862 345.213 296.449 345.212 301.424C345.211 311.37 345.043 322.912 344.709 329.248C343.435 353.342 338.516 372.432 329.655 386.793C320.778 401.182 307.985 410.757 291.118 415.866C273.464 421.214 248.6 421.738 229.05 417.195C202.432 411.011 184.119 394.763 178.523 372.068L177.292 367.077L146.002 367.06L146.238 369.596C150.615 416.697 196.891 447.333 262.952 445.811C295.359 445.065 320.407 437.383 338.617 422.555C356.818 407.735 368.315 385.672 373.422 355.906C373.844 353.449 374.201 351.529 374.503 349.6C376.277 338.295 376.186 326.697 376.351 204.906L376.529 74.7074H345.22Z" fill="url(#paint3_linear_121_76)"/>
</g>
<g filter="url(#filter2_i_121_76)">
<path fill-rule="evenodd" clip-rule="evenodd" d="M246.595 93.0342C252.267 92.5279 264.914 92.7485 270.213 93.4484C308.717 98.5353 335.77 130.41 343.123 178.644C351.66 234.641 331.697 284.236 292.37 303.478C276.498 311.244 255.895 313.304 236.546 309.112C183.854 297.696 156.258 236.871 171.264 167.294C180.165 126.027 210.183 96.285 246.595 93.0342ZM342.134 178.795C334.825 130.847 308.007 99.4503 270.082 94.4398C264.861 93.7502 252.288 93.53 246.684 94.0302C210.796 97.2343 181.07 126.573 172.242 167.505C157.292 236.822 184.847 296.888 236.758 308.135C255.916 312.286 276.286 310.235 291.931 302.58C330.731 283.596 350.631 234.529 342.134 178.795Z" fill="url(#paint4_linear_121_76)"/>
</g>
<mask id="mask0_121_76" style="mask-type:alpha" maskUnits="userSpaceOnUse" x="135" y="66" width="243" height="381">
<path fill-rule="evenodd" clip-rule="evenodd" d="M243.868 66.5799C173.928 73.2164 130.327 132.885 135.4 215.019C138.745 269.182 160.585 307.231 199.035 325.88C229.324 340.571 272.755 341.896 298.714 328.923C317.174 319.697 332.368 304.594 341.612 286.282C342.491 284.54 343.438 283.115 343.715 283.115C344.381 283.115 344.377 316.579 343.71 329.195C341.173 377.191 324.125 404.823 290.828 414.909C273.357 420.202 248.672 420.728 229.276 416.221C202.945 410.103 184.981 394.084 179.494 371.829L178.076 366.078L161.49 366.069L144.905 366.059L145.242 369.688C149.691 417.558 196.678 448.338 262.975 446.811C328.066 445.311 364.136 415.941 374.408 356.075C377.32 339.106 377.158 347.408 377.351 204.907L377.53 73.7074H360.875H344.22V96.7474C344.22 110.485 344.029 119.787 343.747 119.787C343.487 119.787 342.107 117.57 340.681 114.861C337.173 108.198 333.167 102.736 327.166 96.4372C305.151 73.3291 277.435 63.3947 243.868 66.5799ZM270.082 94.4398C308.008 99.4503 334.825 130.847 342.135 178.795C350.631 234.529 330.731 283.596 291.931 302.58C276.286 310.235 255.916 312.286 236.758 308.135C184.848 296.888 157.292 236.822 172.242 167.505C181.071 126.573 210.796 97.2343 246.684 94.0302C252.288 93.53 264.861 93.7502 270.082 94.4398Z" fill="#66390C"/>
<path fill-rule="evenodd" clip-rule="evenodd" d="M243.868 66.5799C173.928 73.2164 130.327 132.885 135.4 215.019C138.745 269.182 160.585 307.231 199.035 325.88C229.324 340.571 272.755 341.896 298.714 328.923C317.174 319.697 332.368 304.594 341.612 286.282C342.491 284.54 343.438 283.115 343.715 283.115C344.381 283.115 344.377 316.579 343.71 329.195C341.173 377.191 324.125 404.823 290.828 414.909C273.357 420.202 248.672 420.728 229.276 416.221C202.945 410.103 184.981 394.084 179.494 371.829L178.076 366.078L161.49 366.069L144.905 366.059L145.242 369.688C149.691 417.558 196.678 448.338 262.975 446.811C328.066 445.311 364.136 415.941 374.408 356.075C377.32 339.106 377.158 347.408 377.351 204.907L377.53 73.7074H360.875H344.22V96.7474C344.22 110.485 344.029 119.787 343.747 119.787C343.487 119.787 342.107 117.57 340.681 114.861C337.173 108.198 333.167 102.736 327.166 96.4372C305.151 73.3291 277.435 63.3947 243.868 66.5799ZM270.082 94.4398C308.008 99.4503 334.825 130.847 342.135 178.795C350.631 234.529 330.731 283.596 291.931 302.58C276.286 310.235 255.916 312.286 236.758 308.135C184.848 296.888 157.292 236.822 172.242 167.505C181.071 126.573 210.796 97.2343 246.684 94.0302C252.288 93.53 264.861 93.7502 270.082 94.4398Z" fill="url(#paint5_radial_121_76)"/>
</mask>
<g mask="url(#mask0_121_76)">
<ellipse cx="255.5" cy="-28.5" rx="511.5" ry="241.5" fill="url(#paint6_linear_121_76)"/>
</g>
</g>
<rect x="1.25" y="1.25" width="509.5" height="509.5" rx="62.75" stroke="url(#paint7_linear_121_76)" stroke-width="2.5"/>
<defs>
<filter id="filter0_i_121_76" x="135" y="66" width="242.53" height="380.865" filterUnits="userSpaceOnUse" color-interpolation-filters="sRGB">
<feFlood flood-opacity="0" result="BackgroundImageFix"/>
<feBlend mode="normal" in="SourceGraphic" in2="BackgroundImageFix" result="shape"/>
<feColorMatrix in="SourceAlpha" type="matrix" values="0 0 0 0 0 0 0 0 0 0 0 0 0 0 0 0 0 0 127 0" result="hardAlpha"/>
<feOffset/>
<feGaussianBlur stdDeviation="10"/>
<feComposite in2="hardAlpha" operator="arithmetic" k2="-1" k3="1"/>
<feColorMatrix type="matrix" values="0 0 0 0 0 0 0 0 0 0 0 0 0 0 0 0 0 0 0.25 0"/>
<feBlend mode="normal" in2="shape" result="effect1_innerShadow_121_76"/>
</filter>
<filter id="filter1_i_121_76" x="135" y="66" width="242.53" height="380.865" filterUnits="userSpaceOnUse" color-interpolation-filters="sRGB">
<feFlood flood-opacity="0" result="BackgroundImageFix"/>
<feBlend mode="normal" in="SourceGraphic" in2="BackgroundImageFix" result="shape"/>
<feColorMatrix in="SourceAlpha" type="matrix" values="0 0 0 0 0 0 0 0 0 0 0 0 0 0 0 0 0 0 127 0" result="hardAlpha"/>
<feOffset/>
<feGaussianBlur stdDeviation="10"/>
<feComposite in2="hardAlpha" operator="arithmetic" k2="-1" k3="1"/>
<feColorMatrix type="matrix" values="0 0 0 0 0 0 0 0 0 0 0 0 0 0 0 0 0 0 0.25 0"/>
<feBlend mode="normal" in2="shape" result="effect1_innerShadow_121_76"/>
</filter>
<filter id="filter2_i_121_76" x="167.199" y="92.7582" width="177.874" height="218.483" filterUnits="userSpaceOnUse" color-interpolation-filters="sRGB">
<feFlood flood-opacity="0" result="BackgroundImageFix"/>
<feBlend mode="normal" in="SourceGraphic" in2="BackgroundImageFix" result="shape"/>
<feColorMatrix in="SourceAlpha" type="matrix" values="0 0 0 0 0 0 0 0 0 0 0 0 0 0 0 0 0 0 127 0" result="hardAlpha"/>
<feOffset/>
<feGaussianBlur stdDeviation="10"/>
<feComposite in2="hardAlpha" operator="arithmetic" k2="-1" k3="1"/>
<feColorMatrix type="matrix" values="0 0 0 0 0 0 0 0 0 0 0 0 0 0 0 0 0 0 0.25 0"/>
<feBlend mode="normal" in2="shape" result="effect1_innerShadow_121_76"/>
</filter>
<linearGradient id="paint0_linear_121_76" x1="256" y1="0" x2="256" y2="512" gradientUnits="userSpaceOnUse">
<stop stop-color="#EFEDDE"/>
<stop offset="1" stop-color="#E6E1C3"/>
</linearGradient>
<linearGradient id="paint1_linear_121_76" x1="256" y1="215" x2="256" y2="18" gradientUnits="userSpaceOnUse">
<stop stop-color="white" stop-opacity="0.63"/>
<stop offset="1" stop-color="white" stop-opacity="0"/>
</linearGradient>
<radialGradient id="paint2_radial_121_76" cx="0" cy="0" r="1" gradientUnits="userSpaceOnUse" gradientTransform="translate(256 207.5) rotate(90) scale(151 174.315)">
<stop stop-color="#9A5610"/>
<stop offset="1" stop-color="#6F3E0D"/>
</radialGradient>
<linearGradient id="paint3_linear_121_76" x1="256.265" y1="66" x2="256.265" y2="446.865" gradientUnits="userSpaceOnUse">
<stop stop-color="white" stop-opacity="0.41"/>
<stop offset="0.723958" stop-opacity="0.34"/>
<stop offset="0.77414" stop-color="white" stop-opacity="0.34"/>
<stop offset="1" stop-color="#111111" stop-opacity="0.344532"/>
</linearGradient>
<linearGradient id="paint4_linear_121_76" x1="256.136" y1="92.7582" x2="256.136" y2="311.241" gradientUnits="userSpaceOnUse">
<stop stop-opacity="0.28"/>
<stop offset="1" stop-color="white" stop-opacity="0.35"/>
</linearGradient>
<radialGradient id="paint5_radial_121_76" cx="0" cy="0" r="1" gradientUnits="userSpaceOnUse" gradientTransform="translate(256 207.5) rotate(90) scale(151 174.315)">
<stop stop-color="#9A5610"/>
<stop offset="1" stop-color="#6F3E0D"/>
</radialGradient>
<linearGradient id="paint6_linear_121_76" x1="255" y1="213" x2="255" y2="16" gradientUnits="userSpaceOnUse">
<stop stop-color="white" stop-opacity="0.17"/>
<stop offset="1" stop-color="white" stop-opacity="0"/>
</linearGradient>
<linearGradient id="paint7_linear_121_76" x1="256" y1="0" x2="256" y2="512" gradientUnits="userSpaceOnUse">
<stop stop-color="#E4E3D6"/>
<stop offset="1" stop-color="#D5D1B6"/>
</linearGradient>
<clipPath id="clip0_121_76">
<rect width="512" height="512" rx="64" fill="white"/>
</clipPath>
</defs>
</svg>
