<svg width="128" height="128" viewBox="0 0 128 128" fill="none" xmlns="http://www.w3.org/2000/svg">
<path d="M63.4959 32C39.473 32 20 51.3087 20 75.1345V95.7901H28.0159V93.7287C28.0159 84.062 35.9085 76.2269 45.6573 76.2269C55.4061 76.2269 63.2988 84.062 63.2988 93.7287V95.7901H71.3146V93.7287C71.3146 79.6763 59.8247 68.2849 45.6573 68.2849C40.1382 68.2849 35.0297 70.0096 30.8493 72.9581C35.2268 64.3263 44.2447 58.3965 54.6587 58.3965C69.3682 58.3965 81.2934 70.2314 81.2934 84.8094V95.7819H89.3093V84.8094C89.3093 65.8292 73.795 50.4381 54.6587 50.4381C46.0515 50.4381 38.1835 53.5508 32.1223 58.7004C38.0767 47.5389 49.887 39.9419 63.5041 39.9419C83.1003 39.9419 98.9841 55.6944 98.9841 75.1263V95.7819H107V75.1263C106.992 51.3087 87.5188 32 63.4959 32Z" fill="black"/>
</svg>
