<svg width="123" height="102" viewBox="-16 -16 155 134" fill="none" xmlns="http://www.w3.org/2000/svg">
<g clip-path="url(#clip0_2954_72)">
<mask id="mask0_2954_72" style="mask-type:luminance" maskUnits="userSpaceOnUse" x="0" y="0" width="123" height="102">
<path d="M0 0H123V102H0V0Z" fill="white"/>
</mask>
<g mask="url(#mask0_2954_72)">
<path d="M105.4 19.73C104.714 19.0462 103.898 18.5078 102.999 18.147C102.1 17.7862 101.138 17.6103 100.17 17.63H100.13C94.4301 17.63 89.8601 13 89.8601 7.31C89.8746 6.36113 89.7014 5.41874 89.3505 4.53704C88.9995 3.65533 88.4778 2.8517 87.8151 2.17235C87.1525 1.49301 86.3622 0.951357 85.4895 0.578544C84.6168 0.205732 83.679 0.00911479 82.7301 0L24.7901 0C23.842 0.00912586 22.905 0.205417 22.033 0.577604C21.161 0.949792 20.3711 1.49055 19.7086 2.16883C19.0461 2.84711 18.5241 3.64955 18.1726 4.5301C17.821 5.41065 17.6469 6.35196 17.6601 7.3C17.6601 13 13.0401 17.61 7.34007 17.61V17.62C6.38031 17.6013 5.4265 17.7748 4.53474 18.1301C3.64299 18.4855 2.8313 19.0155 2.14741 19.6892C1.46352 20.3628 0.921246 21.1664 0.552476 22.0527C0.183705 22.939 -0.00411312 23.8901 6.83129e-05 24.85V43.38C-0.00280668 44.34 0.186311 45.2908 0.556298 46.1766C0.926286 47.0624 1.46967 47.8652 2.15449 48.538C2.83932 49.2107 3.65175 49.7396 4.544 50.0938C5.43626 50.4479 6.39032 50.62 7.35007 50.6C10.0783 50.6 12.6952 51.6824 14.6262 53.6097C16.5573 55.537 17.6448 58.1517 17.6501 60.88V79.7C17.6501 82.1 20.6801 83.17 22.1801 81.3L32.6301 68.24H82.7301C83.6782 68.2309 84.6151 68.0346 85.4871 67.6624C86.3591 67.2902 87.1491 66.7495 87.8116 66.0712C88.474 65.3929 88.996 64.5904 89.3476 63.7099C89.6991 62.8293 89.8733 61.888 89.8601 60.94V60.93C89.8601 55.23 94.4601 50.61 100.16 50.61H100.17C101.13 50.6314 102.085 50.4602 102.978 50.1066C103.871 49.7529 104.684 49.224 105.369 48.551C106.054 47.8781 106.597 47.0746 106.967 46.1882C107.336 45.3018 107.524 44.3503 107.52 43.39V24.85C107.52 23 106.82 21.15 105.4 19.73ZM93.0801 43.58C93.0511 46.2935 91.9535 48.8863 90.0253 50.7957C88.0971 52.7052 85.4938 53.7775 82.7801 53.78H24.7301C22.0164 53.7775 19.4131 52.7052 17.4849 50.7957C15.5566 48.8863 14.459 46.2935 14.4301 43.58V24.65C14.459 21.9365 15.5566 19.3437 17.4849 17.4342C19.4131 15.5248 22.0164 14.4525 24.7301 14.45V14.43H24.7801V14.44H82.7601C88.4201 14.44 93.0101 19 93.0701 24.64V43.58H93.0801Z" fill="black"/>
<path d="M37.7301 23.26C33.7301 23.26 30.5001 26.5 30.5001 30.5V37.73C30.4639 38.7027 30.6243 39.6728 30.9716 40.5821C31.3189 41.4915 31.846 42.3215 32.5214 43.0225C33.1968 43.7234 34.0066 44.281 34.9025 44.6619C35.7983 45.0427 36.7617 45.239 37.7351 45.239C38.7085 45.239 39.672 45.0427 40.5678 44.6619C41.4636 44.281 42.2734 43.7234 42.9488 43.0225C43.6242 42.3215 44.1513 41.4915 44.4986 40.5821C44.8459 39.6728 45.0063 38.7027 44.9701 37.73V30.5C44.9701 26.5 41.7301 23.26 37.7301 23.26ZM69.7801 23.26C65.7801 23.26 62.5401 26.5 62.5401 30.5V37.73C62.5401 39.6502 63.3029 41.4917 64.6607 42.8494C66.0184 44.2072 67.86 44.97 69.7801 44.97C71.7003 44.97 73.5418 44.2072 74.8996 42.8494C76.2573 41.4917 77.0201 39.6502 77.0201 37.73V30.5C77.0201 26.5 73.7801 23.26 69.7801 23.26Z" fill="black"/>
<path d="M37.1199 99.98L47.2599 87.3H97.3599C98.3088 87.2922 99.2468 87.0969 100.12 86.7253C100.993 86.3536 101.784 85.8131 102.448 85.1347C103.111 84.4563 103.634 83.6534 103.986 82.7722C104.339 81.891 104.513 80.9489 104.5 80C104.49 74.32 109.08 69.7 114.76 69.68H114.81C115.77 69.7 116.725 69.5276 117.618 69.1728C118.511 68.8181 119.324 68.2882 120.009 67.6145C120.694 66.9407 121.237 66.1366 121.607 65.2497C121.976 64.3627 122.164 63.4108 122.16 62.45V44.15C122.16 42.41 121.58 40.71 120.52 39.32L118.49 36.68V57.68C118.493 58.6399 118.304 59.5908 117.934 60.4766C117.564 61.3624 117.02 62.1652 116.335 62.8379C115.651 63.5107 114.838 64.0396 113.946 64.3938C113.054 64.7479 112.1 64.92 111.14 64.9H111.1C108.369 64.9106 105.754 66.0042 103.828 67.9409C101.903 69.8776 100.825 72.4991 100.83 75.23C100.843 76.178 100.669 77.1193 100.317 77.9999C99.9659 78.8804 99.4439 79.6829 98.7814 80.3612C98.1189 81.0394 97.329 81.5802 96.4569 81.9524C95.5849 82.3246 94.648 82.5209 93.6999 82.53H43.5999L32.5599 96.33C32.0759 96.9347 31.8519 97.7069 31.9372 98.4767C32.0225 99.2466 32.4102 99.951 33.0149 100.435C33.6196 100.919 34.3918 101.143 35.1616 101.058C35.9315 100.972 36.6359 100.585 37.1199 99.98Z" fill="url(#paint0_linear_2954_72)"/>
<path d="M25.4701 86.49L36.2701 72.99H86.3701C87.3182 72.9809 88.2551 72.7846 89.1271 72.4124C89.9992 72.0402 90.7891 71.4995 91.4516 70.8212C92.1141 70.1429 92.636 69.3405 92.9876 68.4599C93.3391 67.5794 93.5133 66.638 93.5001 65.69C93.4948 62.9617 94.5721 60.3428 96.4957 58.408C98.4192 56.4732 101.032 55.3806 103.76 55.37H103.81C104.77 55.3914 105.725 55.2202 106.618 54.8666C107.511 54.5129 108.324 53.984 109.009 53.311C109.694 52.6381 110.237 51.8346 110.607 50.9482C110.976 50.0618 111.164 49.1103 111.16 48.15V27.13L113.81 30.58C114.875 31.9689 115.451 33.6701 115.45 35.42V53.7C115.453 54.6591 115.264 55.6091 114.895 56.4942C114.525 57.3793 113.983 58.1817 113.299 58.8543C112.615 59.5269 111.804 60.0561 110.913 60.4108C110.022 60.7655 109.069 60.9387 108.11 60.92H108.06C105.329 60.9332 102.715 62.0294 100.792 63.968C98.868 65.9065 97.7921 68.5291 97.8001 71.26C97.8133 72.208 97.6391 73.1494 97.2876 74.0299C96.936 74.9105 96.414 75.7129 95.7516 76.3912C95.0891 77.0695 94.2992 77.6102 93.4271 77.9824C92.5551 78.3546 91.6182 78.5509 90.6701 78.56H40.5701L30.8101 90.76C30.5297 91.1106 30.183 91.4026 29.7898 91.6193C29.3966 91.8359 28.9646 91.973 28.5184 92.0227C28.0722 92.0723 27.6206 92.0336 27.1894 91.9088C26.7581 91.784 26.3557 91.5754 26.0051 91.295C25.6544 91.0146 25.3625 90.6679 25.1458 90.2747C24.9292 89.8815 24.7921 89.4495 24.7424 89.0033C24.6928 88.5571 24.7314 88.1055 24.8563 87.6743C24.9811 87.2431 25.1897 86.8406 25.4701 86.49Z" fill="url(#paint1_linear_2954_72)"/>
</g>
</g>
<defs>
<linearGradient id="paint0_linear_2954_72" x1="154.44" y1="-8.21" x2="-13.1501" y2="95.68" gradientUnits="userSpaceOnUse">
<stop stop-color="#46A6F7"/>
<stop offset="1" stop-color="#8364FF"/>
</linearGradient>
<linearGradient id="paint1_linear_2954_72" x1="25.0101" y1="104.4" x2="123.89" y2="32.9" gradientUnits="userSpaceOnUse">
<stop stop-color="#FF44D3"/>
<stop offset="1" stop-color="#CF4BFF"/>
</linearGradient>
<clipPath id="clip0_2954_72">
<rect width="123" height="102" fill="white"/>
</clipPath>
</defs>
</svg>
