<svg width="128" height="128" viewBox="0 0 128 128" fill="none" xmlns="http://www.w3.org/2000/svg">
<path d="M42.5124 45.4098L53.7521 26.9859L65.6529 43.1842L91.7686 37.5644L97.3884 46.49L92.4298 56.0768L103.008 74.9198L97.3884 79.5479H85.8182L71.6033 104.011H63.6694L57.719 94.4239H36.562L39.5372 78.5561L31.2727 45.4098H42.5124Z" fill="white"/>
<path fill-rule="evenodd" clip-rule="evenodd" d="M76.5921 57.0463C76.7711 57.0463 76.8158 57.1359 76.7263 57.2703L73.6834 62.6006L64.1965 79.3084C64.1965 79.398 64.107 79.398 64.0175 79.398C63.928 79.398 63.8833 79.398 63.8385 79.3084L51.2639 57.3599C51.1744 57.2255 51.2639 57.1807 51.3534 57.1807H52.1589L76.6368 57.0911L76.5921 57.0463ZM53.7251 27.8414C53.6356 27.8414 53.5909 27.8414 53.5461 27.931L43.1195 46.2065C43.03 46.3856 42.851 46.4752 42.6273 46.4752H32.2007C31.9769 46.4752 31.9322 46.5648 32.0664 46.744L53.1881 83.7429C53.2776 83.8772 53.2329 83.9668 53.0539 83.9668H42.8958C42.5825 83.9668 42.314 84.146 42.1798 84.4595L37.3916 92.8806C37.2126 93.1494 37.3021 93.3285 37.6601 93.3285H58.4686C58.6476 93.3285 58.7818 93.4181 58.8266 93.5973L63.928 102.556C64.107 102.869 64.2412 102.869 64.4202 102.556L85.4972 65.6466C85.4972 65.557 85.5867 65.557 85.6762 65.557C85.7657 65.557 85.8105 65.557 85.8552 65.6466L91.0461 74.8739C91.1356 75.0083 91.2699 75.0978 91.4489 75.0978L101.518 75.0083C101.562 75.0083 101.607 75.0083 101.652 74.9187C101.652 74.8739 101.652 74.8291 101.652 74.7843L91.0909 56.2401C91.0014 56.1057 91.0014 55.9713 91.0909 55.8369L92.1649 54.0004L96.2371 46.7888C96.3266 46.6544 96.2371 46.5648 96.1028 46.5648H53.9041C53.6804 46.5648 53.6356 46.4752 53.7699 46.2961L59.0056 37.1583C59.0951 37.0239 59.0951 36.8896 59.0056 36.7552L54.0384 28.0206C54.0384 27.931 53.9489 27.8862 53.8594 27.8862L53.7251 27.8414ZM66.2102 26.408C67.6422 28.9164 69.0742 31.4248 70.4614 33.978C70.5957 34.202 70.7747 34.2916 71.0432 34.2916H91.2251C91.8516 34.2916 92.3886 34.6947 92.8361 35.501L98.1165 44.8627C98.7878 46.0721 99.0115 46.6096 98.206 47.9086C97.2663 49.4764 96.3266 51.0441 95.4316 52.6566L94.0891 55.0755C93.6864 55.7921 93.2836 56.1057 93.9549 56.9567L103.621 73.8437C104.247 74.9187 104.023 75.6354 103.486 76.6656C101.875 79.5323 100.265 82.3543 98.6088 85.1762C98.027 86.1617 97.3111 86.52 96.1476 86.52C93.3284 86.4752 90.5091 86.52 87.6899 86.5648C87.5557 86.5648 87.4662 86.6544 87.3767 86.744C84.11 92.5223 80.8433 98.2557 77.5318 103.989C76.9053 105.064 76.1446 105.333 74.8916 105.333C71.2669 105.333 67.5975 105.333 63.928 105.333C63.1673 105.333 62.6303 105.019 62.2275 104.348L57.3498 95.8817C57.3051 95.7473 57.1708 95.7026 57.0366 95.7026H38.4208C37.3916 95.7921 36.4071 95.7026 35.5121 95.389L29.6947 85.3106C29.3367 84.6387 29.3367 84.0116 29.6947 83.3397L34.0801 75.6354C34.2144 75.4114 34.2144 75.1426 34.0801 74.9187C31.7979 70.9321 29.5157 66.9903 27.2782 63.0038L24.4143 57.9422C23.8325 56.8224 23.7878 56.1505 24.7723 54.4483C26.4727 51.492 28.1285 48.5357 29.829 45.5794C30.3212 44.7283 30.9477 44.37 31.9322 44.37C35.0646 44.37 38.1971 44.37 41.3743 44.37C41.5533 44.37 41.6875 44.2804 41.777 44.146L51.9799 26.3184C52.3379 25.7361 52.8301 25.4226 53.5014 25.4226C55.4256 25.4226 57.3498 25.4226 59.2741 25.4226L62.9883 25.333C64.2412 25.333 65.6285 25.4674 66.255 26.5872L66.2102 26.408Z" fill="white"/>
<path fill-rule="evenodd" clip-rule="evenodd" d="M76.5921 57.0463C76.7711 57.0463 76.8158 57.1359 76.7263 57.2703L73.6834 62.6006L64.1965 79.3084C64.1965 79.398 64.107 79.398 64.0175 79.398C63.928 79.398 63.8833 79.398 63.8385 79.3084L51.2639 57.3599C51.1744 57.2255 51.2639 57.1807 51.3534 57.1807H52.1589L76.6368 57.0911L76.5921 57.0463ZM53.7251 27.8414C53.6356 27.8414 53.5909 27.8414 53.5461 27.931L43.1195 46.2065C43.03 46.3856 42.851 46.4752 42.6273 46.4752H32.2007C31.9769 46.4752 31.9322 46.5648 32.0664 46.744L53.1881 83.7429C53.2776 83.8772 53.2329 83.9668 53.0539 83.9668H42.8958C42.5825 83.9668 42.314 84.146 42.1798 84.4595L37.3916 92.8806C37.2126 93.1494 37.3021 93.3285 37.6601 93.3285H58.4686C58.6476 93.3285 58.7818 93.4181 58.8266 93.5973L63.928 102.556C64.107 102.869 64.2412 102.869 64.4202 102.556L85.4972 65.6466C85.4972 65.557 85.5867 65.557 85.6762 65.557C85.7657 65.557 85.8105 65.557 85.8552 65.6466L91.0461 74.8739C91.1356 75.0083 91.2699 75.0978 91.4489 75.0978L101.518 75.0083C101.562 75.0083 101.607 75.0083 101.652 74.9187C101.652 74.8739 101.652 74.8291 101.652 74.7843L91.0909 56.2401C91.0014 56.1057 91.0014 55.9713 91.0909 55.8369L92.1649 54.0004L96.2371 46.7888C96.3266 46.6544 96.2371 46.5648 96.1028 46.5648H53.9041C53.6804 46.5648 53.6356 46.4752 53.7699 46.2961L59.0056 37.1583C59.0951 37.0239 59.0951 36.8896 59.0056 36.7552L54.0384 28.0206C54.0384 27.931 53.9489 27.8862 53.8594 27.8862L53.7251 27.8414ZM66.2102 26.408C67.6422 28.9164 69.0742 31.4248 70.4614 33.978C70.5957 34.202 70.7747 34.2916 71.0432 34.2916H91.2251C91.8516 34.2916 92.3886 34.6947 92.8361 35.501L98.1165 44.8627C98.7878 46.0721 99.0115 46.6096 98.206 47.9086C97.2663 49.4764 96.3266 51.0441 95.4316 52.6566L94.0891 55.0755C93.6864 55.7921 93.2836 56.1057 93.9549 56.9567L103.621 73.8437C104.247 74.9187 104.023 75.6354 103.486 76.6656C101.875 79.5323 100.265 82.3543 98.6088 85.1762C98.027 86.1617 97.3111 86.52 96.1476 86.52C93.3284 86.4752 90.5091 86.52 87.6899 86.5648C87.5557 86.5648 87.4662 86.6544 87.3767 86.744C84.11 92.5223 80.8433 98.2557 77.5318 103.989C76.9053 105.064 76.1446 105.333 74.8916 105.333C71.2669 105.333 67.5975 105.333 63.928 105.333C63.1673 105.333 62.6303 105.019 62.2275 104.348L57.3498 95.8817C57.3051 95.7473 57.1708 95.7026 57.0366 95.7026H38.4208C37.3916 95.7921 36.4071 95.7026 35.5121 95.389L29.6947 85.3106C29.3367 84.6387 29.3367 84.0116 29.6947 83.3397L34.0801 75.6354C34.2144 75.4114 34.2144 75.1426 34.0801 74.9187C31.7979 70.9321 29.5157 66.9903 27.2782 63.0038L24.4143 57.9422C23.8325 56.8224 23.7878 56.1505 24.7723 54.4483C26.4727 51.492 28.1285 48.5357 29.829 45.5794C30.3212 44.7283 30.9477 44.37 31.9322 44.37C35.0646 44.37 38.1971 44.37 41.3743 44.37C41.5533 44.37 41.6875 44.2804 41.777 44.146L51.9799 26.3184C52.3379 25.7361 52.8301 25.4226 53.5014 25.4226C55.4256 25.4226 57.3498 25.4226 59.2741 25.4226L62.9883 25.333C64.2412 25.333 65.6285 25.4674 66.255 26.5872L66.2102 26.408Z" fill="url(#paint0_radial_80_2332)"/>
<defs>
<radialGradient id="paint0_radial_80_2332" cx="0" cy="0" r="1" gradientUnits="userSpaceOnUse" gradientTransform="translate(63.3577 70.6797) rotate(90) scale(54.979 54.3201)">
<stop stop-color="#665CEE"/>
<stop offset="1" stop-color="#332E91"/>
</radialGradient>
</defs>
</svg>
