<?xml version="1.0" encoding="UTF-8"?>
<svg width="28px" height="28px" viewBox="0 0 28 28" version="1.1" xmlns="http://www.w3.org/2000/svg" xmlns:xlink="http://www.w3.org/1999/xlink">
  <title>TickTick</title>
  <g id="Page-1" stroke="none" stroke-width="1" fill="none" fill-rule="evenodd">
    <g id="Group" transform="translate(0.1719, 0.1719)">
      <path d="M9.66550627,10.4629868 L7.35890627,13.2708268 L12.8217063,17.7505268 C13.1483263,18.0186268 13.5561863,18.1635268 13.9750463,18.1635268 C14.0376863,18.1635268 14.1006663,18.1602268 14.1634463,18.1537268 C14.6467463,18.1033268 15.0895163,17.8614268 15.3932563,17.4823268 L25.1919063,5.24750677 L22.3555063,2.97602677 L13.7069163,13.7747268 L9.66550627,10.4629868 Z" id="Path" fill="#FFB000"/>
      <path d="M13.8281,24.5449 C7.91888,24.5449 3.11133,19.7374 3.11133,13.8281 C3.11133,7.91888 7.91888,3.11133 13.8281,3.11133 L13.8281,0 C6.2033,0 0,6.2033 0,13.8281 C0,21.453 6.2033,27.6563 13.8281,27.6563 C21.453,27.6563 27.6563,21.453 27.6563,13.8281 L24.5449,13.8281 C24.5449,19.7374 19.7374,24.5449 13.8281,24.5449 Z" id="Path" fill="#4772FA"/>
    </g>
  </g>
</svg>
