<?xml version="1.0" encoding="UTF-8"?>
<svg width="1658px" height="1672px" viewBox="0 0 1658 1672" version="1.1" xmlns="http://www.w3.org/2000/svg" xmlns:xlink="http://www.w3.org/1999/xlink">
    <title>Group</title>
    <g id="Page-1" stroke="none" stroke-width="1" fill="none" fill-rule="evenodd">
        <g id="WhatsApp-active" transform="translate(-0.0042, 0.9821)" fill-rule="nonzero">
            <g id="Group">
                <path d="M436.603067,1444.82879 L463.693359,1458.37323 C574.153326,1524.07514 700.436616,1558.41668 828.957572,1557.71425 C1224.61049,1556.80096 1549.69117,1230.95084 1549.69117,835.299334 C1549.69117,644.0888 1473.7484,460.46236 1338.70429,325.10142 C1203.83981,188.341625 1019.58395,111.270146 827.558715,111.270146 C433.713417,111.270146 109.669503,435.359321 109.669503,829.159358 C109.669503,832.275314 109.669503,835.344595 109.714765,838.460551 C110.900979,972.350088 148.348552,1103.41562 218.075934,1217.72182 L236.135186,1244.81211 L163.895349,1511.1988 L436.603067,1444.82738 L436.603067,1444.82879 Z" id="Path" fill="#00E676"></path>
                <path d="M1419.07277,243.831958 C1265.33575,86.9789811 1054.43655,-1.01743983 834.827394,0.00887796039 L833.427124,0.00887796039 C381.159409,0.00887796039 8.98577912,372.194371 8.98577912,824.4635 C8.98577912,826.585122 9.0310404,828.662898 9.0310404,830.785935 C10.7345676,974.5794 47.9591872,1115.7217 117.39221,1241.6523 L0,1670.57934 L437.506878,1557.70336 C558.368396,1624.058 694.245873,1658.26102 832.11879,1657.0349 C1286.05976,1654.55119 1658.18813,1280.25594 1657.92667,826.269708 C1659,608.148512 1572.98942,398.380852 1419.07277,243.831958 M834.827394,1517.07773 C712.613055,1517.70553 592.550121,1484.91854 487.622434,1422.25331 L460.532141,1408.70746 L200.015268,1476.4339 L267.740292,1219.07683 L249.68104,1191.98653 C182.596535,1083.66682 147.053909,958.782218 147.053909,831.371503 C147.053909,455.632132 456.243635,146.440992 831.98442,146.440992 C1207.72379,146.440992 1516.9121,455.632132 1516.9121,831.371503 C1516.9121,1067.9593 1394.3304,1288.38317 1193.3208,1413.22227 C1087.0096,1481.32311 963.33875,1517.37454 837.086215,1517.07773 M1233.95695,1015.90034 L1184.29118,993.326275 C1184.29118,993.326275 1112.04992,961.719755 1066.90038,939.14569 C1062.38557,939.14569 1057.87075,934.630877 1053.35453,934.630877 C1042.22324,934.905417 1031.34569,938.013149 1021.74942,943.660503 C1012.13281,949.304019 1017.23461,948.175316 954.024398,1020.41515 C949.735891,1028.85921 940.931157,1034.14205 931.450333,1033.96101 L926.934106,1033.96101 C920.146862,1032.8247 913.856244,1029.67939 908.874854,1024.93138 L886.299374,1015.90034 C837.860283,995.393424 793.507671,966.335428 755.362725,930.116064 C746.333099,921.085024 732.78866,912.053983 723.75762,903.024357 C690.333301,871.005328 661.468437,834.544221 637.973344,794.664602 L633.457117,785.634976 C629.535056,780.11572 626.489255,774.023642 624.427491,767.57431 C623.246807,759.753196 624.844321,751.765626 628.942304,745.000245 C633.05118,738.226611 647.00297,722.423351 660.547409,708.878912 C674.093263,695.334473 674.093263,686.304847 683.122889,677.273807 C692.512536,664.233975 695.804938,647.770931 692.152515,632.122848 C671.111005,573.700509 646.997449,516.430696 619.912678,460.552882 C612.652935,449.262279 601.34233,441.183131 588.307573,437.977403 L538.641801,437.977403 C529.612175,437.977403 520.582549,442.492216 511.551508,442.492216 L507.036696,447.007029 C498.00707,451.521842 488.977444,460.552882 479.946403,465.067695 C470.916777,469.582508 466.401964,483.128362 457.372338,492.157988 C425.808427,532.044579 408.343852,581.262112 407.706566,632.122848 C408.206723,667.900088 415.883022,703.212986 430.280631,735.969205 L434.796859,749.513644 C475.337812,836.191225 532.036008,914.342663 601.853426,979.780422 L619.912678,997.841088 C633.054934,1008.72587 645.147816,1020.81875 656.032596,1033.96101 C749.583425,1115.36625 860.698461,1174.06165 980.663492,1205.53239 C994.207931,1210.0472 1012.2686,1210.0472 1025.81304,1214.56201 L1070.964,1214.56201 C1094.56206,1213.39802 1117.64492,1207.24237 1138.68902,1196.50135 C1149.74974,1191.49007 1160.31543,1185.44062 1170.29412,1178.44209 L1179.32375,1169.41105 C1188.35479,1160.38143 1197.38442,1155.86661 1206.41404,1146.83699 C1215.23891,1138.97438 1222.84707,1129.84468 1228.98952,1119.7467 C1237.65847,1099.51915 1243.75319,1078.29868 1247.05019,1056.53649 L1247.05019,1024.93138 C1242.99261,1021.2854 1238.43035,1018.24374 1233.50433,1015.90034" id="Shape" fill="#FFFFFF"></path>
            </g>
        </g>
    </g>
</svg>